<svg width="62" height="62" viewBox="0 0 62 62" fill="none" xmlns="http://www.w3.org/2000/svg">
<rect width="61.44" height="61.44" fill="black"/>
<rect width="61.44" height="61.44" fill="black"/>
<path d="M55.7949 32.264C55.5571 32.7052 55.3289 33.1265 55.1106 33.5281C54.8923 33.9297 54.712 34.2605 54.5699 34.5203C54.5319 34.5912 54.4935 34.6619 54.4554 34.7327C54.4162 34.812 54.3735 34.8869 54.3282 34.9569C54.2902 35.0278 54.2518 35.1029 54.2127 35.182C54.1643 35.2768 54.1164 35.3674 54.0691 35.4539C54.0206 35.5488 53.9727 35.6402 53.9253 35.7268C53.877 35.8216 53.8255 35.9122 53.771 35.9978C53.7226 36.0926 53.6747 36.1832 53.6274 36.2697C53.544 36.4106 53.4484 36.5039 53.3411 36.5491C53.2401 36.6033 53.1408 36.6158 53.0433 36.5866C52.9528 36.5581 52.8726 36.4974 52.8048 36.4044C52.7431 36.3207 52.7096 36.215 52.7041 36.088C52.6987 35.961 52.7349 35.8267 52.811 35.6849C52.8583 35.5983 52.9063 35.507 52.9547 35.4121C53.0102 35.3182 53.0661 35.2242 53.1216 35.1302C53.1771 35.0364 53.2286 34.9413 53.277 34.8465C53.3324 34.7528 53.384 34.6629 53.4312 34.5765C53.4704 34.4973 53.5052 34.4257 53.5351 34.3622C53.5722 34.2996 53.6053 34.2357 53.6352 34.1722C53.6722 34.1096 53.7106 34.0389 53.7497 33.9597C53.8455 33.7782 53.9692 33.5543 54.1195 33.2872C54.2709 33.0118 54.4319 32.7119 54.6039 32.3886C54.7831 32.0661 54.9634 31.7397 55.1436 31.409C55.2138 31.2802 55.2795 31.153 55.3456 31.03C55.4898 31.1256 55.6591 31.1876 55.8435 31.202C56.0615 31.219 56.2688 31.167 56.4457 31.0658C56.2492 31.4356 56.0332 31.8358 55.7949 32.264ZM56.8781 28.4852C57.0128 28.452 57.1333 28.4712 57.2399 28.5438C57.3536 28.6173 57.4261 28.7279 57.458 28.8752C57.4969 29.0234 57.4655 29.1878 57.3627 29.3683C57.2865 29.5101 57.2063 29.6559 57.122 29.805C57.0747 29.8968 57.0233 29.9869 56.9733 30.0785C56.9455 29.6821 56.6968 29.3392 56.3406 29.1857C56.4114 29.0527 56.4795 28.927 56.5425 28.8077C56.6382 28.6264 56.7506 28.5193 56.8781 28.4852Z" fill="#EBEBEB"/>
<path d="M54.5304 25.3001C56.2256 25.2829 57.6195 26.6479 57.6369 28.3431C57.6417 28.8143 57.5416 29.2685 57.341 29.6917C57.3386 29.6967 57.3357 29.7015 57.3332 29.7064C57.0493 30.2876 56.2372 31.6939 55.3771 33.1819L54.9552 33.9124C54.886 34.0321 54.7586 34.1063 54.6203 34.1077C54.482 34.1091 54.353 34.0375 54.2814 33.9192L53.8449 33.1976C52.9486 31.7169 52.1018 30.3181 51.8117 29.7503C51.6008 29.3286 51.4922 28.877 51.4875 28.4056C51.4704 26.7106 52.8354 25.3176 54.5304 25.3001ZM54.4406 26.8509C53.6115 26.851 52.9369 27.5257 52.9367 28.3548C52.9367 29.184 53.6114 29.8586 54.4406 29.8587C55.2699 29.8587 55.9445 29.1841 55.9445 28.3548C55.9443 27.5256 55.2698 26.8509 54.4406 26.8509Z" fill="white"/>
<g filter="url(#filter0_f_7_317)">
<path d="M17.6083 38.1009C16.7118 37.8548 15.0735 37.1617 14.4776 36.633C13.792 36.0812 15.1681 35.4095 15.3308 35.3095C15.4936 35.2094 23.5096 30.9757 24.9097 30.3164C26.3099 29.6572 30.827 30.8584 31.928 31.4338C32.8254 31.9028 32.2089 32.2663 32.0933 32.3652C31.9777 32.4641 25.3109 36.4061 22.9094 37.6185C21.0907 38.5367 19.3681 38.584 17.6083 38.1009Z" fill="white" fill-opacity="0.2"/>
</g>
<path fill-rule="evenodd" clip-rule="evenodd" d="M23.9238 33.7141L23.0152 33.3202L23.0149 33.3207C23.0091 33.3181 23.0033 33.3155 22.9973 33.313C22.4563 33.0864 21.7069 33.6499 21.3236 34.5716C20.9403 35.4933 21.0681 36.4241 21.6092 36.6507C21.6166 36.6538 21.624 36.6568 21.6315 36.6596L22.5079 37.04L22.9618 35.9738C23.0839 35.8031 23.1934 35.6074 23.2829 35.3922C23.3655 35.1937 23.4243 34.9947 23.4604 34.8025L23.9238 33.7141Z" fill="black"/>
<path d="M22.5108 37.0411C23.0518 37.2677 23.801 36.7048 24.184 35.7839C24.567 34.8629 24.4389 33.9326 23.8979 33.706C23.3568 33.4795 22.6077 34.0423 22.2247 34.9633C21.8416 35.8843 21.9697 36.8146 22.5108 37.0411Z" fill="black"/>
<g filter="url(#filter1_d_7_317)">
<path d="M22.7147 36.6246C23.1205 36.7945 23.6824 36.3723 23.9697 35.6816C24.2569 34.9908 24.1609 34.2931 23.7551 34.1231C23.3492 33.9532 22.7874 34.3754 22.5001 35.0661C22.2128 35.7569 22.3089 36.4546 22.7147 36.6246Z" fill="url(#paint0_linear_7_317)"/>
</g>
<g filter="url(#filter2_di_7_317)">
<path fill-rule="evenodd" clip-rule="evenodd" d="M23.1782 34.4102C23.0651 34.4809 22.9544 34.5844 22.8553 34.7137L23.0979 35.1116C23.1279 35.0745 23.1603 35.0435 23.1937 35.0197L23.1782 34.4102ZM23.2129 35.7777C23.1634 35.7987 23.1142 35.8025 23.0705 35.7854L22.7459 36.3841C22.7639 36.3952 22.7827 36.405 22.8024 36.4133C22.9319 36.4675 23.0805 36.4492 23.228 36.3735L23.2129 35.7777ZM23.2739 36.3481L23.2588 35.7534C23.2981 35.7285 23.3366 35.6934 23.3717 35.6501L23.6094 36.04C23.5065 36.173 23.3913 36.2783 23.2739 36.3481ZM23.2395 34.9917L23.2241 34.3833C23.3772 34.3001 23.5324 34.2781 23.667 34.3344C23.7046 34.3502 23.7389 34.3714 23.77 34.3974L23.4425 35.0016C23.4304 34.9916 23.4172 34.9834 23.4027 34.9773C23.353 34.9565 23.2961 34.9632 23.2395 34.9917ZM23.8453 35.6296C23.7882 35.767 23.7179 35.8917 23.6395 35.9998L23.4017 35.6098C23.4282 35.5712 23.4521 35.5275 23.4719 35.4799C23.4743 35.4741 23.4766 35.4683 23.4789 35.4626L23.8735 35.558C23.8646 35.5818 23.8552 35.6057 23.8453 35.6296ZM23.0679 35.1518L22.8254 34.7541C22.7488 34.8608 22.6801 34.9833 22.6241 35.1181C22.6127 35.1455 22.602 35.1728 22.5921 35.2002L22.9917 35.2968C22.9938 35.2917 22.9958 35.2866 22.998 35.2815C23.0177 35.234 23.0414 35.1904 23.0679 35.1518ZM23.8892 35.5138C23.9549 35.3221 23.9853 35.133 23.9828 34.9633L23.525 35.2442C23.5235 35.299 23.5134 35.3582 23.4944 35.4183L23.8892 35.5138ZM22.9761 35.341C22.9533 35.4125 22.9431 35.4827 22.9447 35.5457L22.4879 35.826C22.4795 35.6489 22.5081 35.4484 22.5766 35.2444L22.9761 35.341ZM22.4916 35.8784L22.949 35.5977C22.9592 35.6691 22.9867 35.7275 23.0302 35.7621L22.7076 36.3571C22.5845 36.2592 22.5108 36.0877 22.4916 35.8784ZM23.9809 34.9098L23.5238 35.1903C23.519 35.13 23.5026 35.0774 23.4756 35.0382L23.8052 34.4303C23.9094 34.5389 23.9693 34.7087 23.9809 34.9098Z" fill="#4C4C4C"/>
</g>
<path fill-rule="evenodd" clip-rule="evenodd" d="M23.9229 33.6952L23.0142 33.3014L23.0141 33.3016C23.0085 33.2991 23.0028 33.2966 22.9971 33.2942C22.4561 33.0676 21.7067 33.6311 21.3234 34.5528C20.9401 35.4745 21.0679 36.4053 21.609 36.6319C21.6145 36.6342 21.6199 36.6364 21.6254 36.6386L22.5069 37.0212L22.9596 35.9578C23.0825 35.7865 23.1927 35.5898 23.2827 35.3734C23.3658 35.1737 23.4248 34.9736 23.4609 34.7803L23.9229 33.6952Z" fill="black"/>
<path d="M24.1944 35.7836C23.8114 36.7046 23.0622 37.2675 22.5212 37.0409C21.9801 36.8143 21.852 35.884 22.235 34.963C22.6181 34.0421 23.3889 33.4296 23.93 33.6562C24.471 33.8827 24.5774 34.8626 24.1944 35.7836Z" fill="#2D2C2C"/>
<g filter="url(#filter3_d_7_317)">
<path d="M22.7409 36.5864C23.1197 36.75 23.6436 36.3396 23.9112 35.67C24.1787 35.0003 24.0885 34.3249 23.7098 34.1614C23.331 33.9979 22.807 34.4082 22.5395 35.0778C22.272 35.7475 22.3622 36.4229 22.7409 36.5864Z" fill="url(#paint1_linear_7_317)"/>
</g>
<g filter="url(#filter4_di_7_317)">
<path fill-rule="evenodd" clip-rule="evenodd" d="M23.7072 35.6542C23.5192 36.0758 23.1941 36.3411 22.9342 36.2915L23.1234 35.8275C23.2338 35.8217 23.3591 35.7154 23.4428 35.5528L23.7072 35.6542ZM23.7589 35.5241C23.9085 35.0977 23.8636 34.6812 23.6569 34.5191L23.4678 34.9829C23.54 35.0727 23.5528 35.2446 23.4961 35.4233L23.7589 35.5241ZM22.9913 35.2297C23.0779 35.0391 23.2216 34.9149 23.3434 34.9188L23.5312 34.4581C23.2617 34.3939 22.9166 34.6782 22.7282 35.1288L22.9913 35.2297ZM22.9443 35.3616L22.6795 35.2601C22.5428 35.6812 22.5955 36.0856 22.8061 36.2364L22.9941 35.7754C22.9185 35.6954 22.8988 35.5344 22.9443 35.3616Z" fill="#A9A8A8"/>
</g>
<path fill-rule="evenodd" clip-rule="evenodd" d="M30.5859 30.1475L29.7894 29.9628L29.7892 29.9633C29.7842 29.9621 29.7791 29.9609 29.774 29.9598C29.3009 29.8563 28.7758 30.4256 28.6013 31.2314C28.4268 32.0372 28.6689 32.7744 29.142 32.8779C29.1489 32.8794 29.1559 32.8807 29.1628 32.882L29.9296 33.0601L30.1398 32.1274C30.2139 31.9703 30.2739 31.7947 30.3147 31.6062C30.3524 31.4323 30.3706 31.2616 30.3713 31.0998L30.5859 30.1475Z" fill="black"/>
<path d="M29.933 33.0607C30.4061 33.1642 30.931 32.5954 31.1054 31.7902C31.2798 30.985 31.0376 30.2484 30.5645 30.1449C30.0913 30.0414 29.5664 30.6102 29.392 31.4154C29.2176 32.2206 29.4598 32.9572 29.933 33.0607Z" fill="black"/>
<g filter="url(#filter5_d_7_317)">
<path d="M30.0363 32.6919C30.3912 32.7695 30.7849 32.3429 30.9157 31.7389C31.0465 31.135 30.8649 30.5825 30.51 30.5049C30.1551 30.4273 29.7614 30.8539 29.6306 31.4578C29.4998 32.0618 29.6815 32.6143 30.0363 32.6919Z" fill="url(#paint2_linear_7_317)"/>
</g>
<g filter="url(#filter6_di_7_317)">
<path fill-rule="evenodd" clip-rule="evenodd" d="M30.0848 30.8237C30.0033 30.8981 29.9287 30.9987 29.8673 31.1187L30.1237 31.406C30.1426 31.3714 30.1644 31.3413 30.188 31.3169L30.0848 30.8237ZM30.3162 31.9299C30.279 31.9543 30.2395 31.9648 30.2014 31.9573L30.0266 32.4919C30.0428 32.4983 30.0595 32.5034 30.0767 32.5071C30.1901 32.5319 30.3082 32.4948 30.4168 32.4112L30.3162 31.9299ZM30.4503 32.3837L30.3499 31.9033C30.378 31.8773 30.4041 31.8431 30.4261 31.8028L30.6768 32.0837C30.6131 32.207 30.5352 32.3096 30.4503 32.3837ZM30.2211 31.2874L30.1181 30.7951C30.2301 30.7049 30.3527 30.664 30.4703 30.6897C30.5032 30.6969 30.5344 30.709 30.5635 30.7255L30.3872 31.265C30.376 31.2587 30.3641 31.2541 30.3515 31.2514C30.3081 31.2419 30.2628 31.2558 30.2211 31.2874ZM30.8075 31.7152C30.7815 31.8354 30.7429 31.9471 30.6953 32.0467L30.4445 31.7656C30.4604 31.7302 30.4733 31.6911 30.4824 31.6494C30.4835 31.6443 30.4845 31.6392 30.4855 31.6342L30.8197 31.6529C30.8161 31.6736 30.812 31.6944 30.8075 31.7152ZM30.1054 31.4432L29.849 31.1559C29.8026 31.254 29.7651 31.3637 29.7396 31.4816C29.7344 31.5055 29.7298 31.5293 29.7258 31.553L30.0651 31.572C30.066 31.5676 30.0669 31.5632 30.0679 31.5587C30.0768 31.5173 30.0896 31.4785 30.1054 31.4432ZM30.826 31.6147C30.8508 31.4493 30.8475 31.2913 30.8203 31.1539L30.4905 31.4499C30.4974 31.4946 30.498 31.5442 30.4915 31.5959L30.826 31.6147ZM30.059 31.6103C30.051 31.6718 30.0532 31.7303 30.0639 31.7813L29.7342 32.0773C29.7009 31.9346 29.6944 31.7673 29.7198 31.5913L30.059 31.6103ZM29.7449 32.1193L30.0751 31.8229C30.0939 31.8793 30.1249 31.9226 30.1652 31.9442L29.9915 32.4757C29.877 32.4146 29.7917 32.2863 29.7449 32.1193ZM30.8108 31.1107L30.4815 31.4064C30.4686 31.3579 30.4474 31.3176 30.4195 31.2898L30.5969 30.747C30.6977 30.8198 30.7716 30.9489 30.8108 31.1107Z" fill="#4C4C4C"/>
</g>
<path fill-rule="evenodd" clip-rule="evenodd" d="M30.5891 30.1683L29.7925 29.9836L29.7925 29.9838C29.7875 29.9826 29.7824 29.9814 29.7774 29.9803C29.3042 29.8768 28.7792 30.4461 28.6047 31.2519C28.4302 32.0577 28.6723 32.7949 29.1454 32.8984C29.1499 32.8994 29.1545 32.9003 29.159 32.9012L29.9328 33.0809L30.1429 32.1484C30.2171 31.9912 30.2772 31.8155 30.3181 31.6267C30.3558 31.4526 30.374 31.2817 30.3747 31.1197L30.5891 30.1683Z" fill="black"/>
<path d="M29.9323 33.0801C30.4107 33.1847 30.9415 32.6096 31.1178 31.7954C31.2941 30.9813 31.0492 30.2365 30.5708 30.1318C30.0924 30.0272 29.5617 30.6023 29.3853 31.4165C29.209 32.2306 29.4539 32.9754 29.9323 33.0801Z" fill="#2C2C2C"/>
<g filter="url(#filter7_d_7_317)">
<g filter="url(#filter8_d_7_317)">
<path d="M30.0042 32.7418C30.3326 32.8329 30.7341 32.4425 30.9011 31.8697C31.068 31.2969 30.9371 30.7587 30.6088 30.6676C30.2804 30.5765 29.8788 30.967 29.7119 31.5398C29.5449 32.1126 29.6758 32.6507 30.0042 32.7418Z" fill="url(#paint3_linear_7_317)"/>
</g>
<g filter="url(#filter9_di_7_317)">
<path fill-rule="evenodd" clip-rule="evenodd" d="M30.7527 31.8642C30.6464 32.2292 30.4104 32.4888 30.1911 32.4876L30.2934 32.0851C30.3825 32.0634 30.4718 31.9612 30.5218 31.8206L30.7527 31.8642ZM30.7812 31.7481C30.8549 31.383 30.7699 31.054 30.5812 30.9523L30.4789 31.355C30.5478 31.4178 30.5776 31.5536 30.552 31.7049L30.7812 31.7481ZM30.1125 31.6219C30.162 31.455 30.2666 31.3337 30.3678 31.3198L30.4693 30.9207C30.2392 30.9078 29.9871 31.1875 29.8841 31.5788L30.1125 31.6219ZM30.0886 31.7388L29.8585 31.6954C29.7958 32.054 29.8866 32.3712 30.0776 32.4619L30.179 32.0629C30.1074 32.01 30.072 31.884 30.0886 31.7388Z" fill="#A9A8A8"/>
</g>
</g>
<g filter="url(#filter10_ii_7_317)">
<path fill-rule="evenodd" clip-rule="evenodd" d="M18.7612 30.0008C18.7529 30.008 18.7441 30.0146 18.7347 30.0204C18.702 30.0404 18.6725 30.0546 18.6461 30.0623C18.3149 30.1601 15.5606 31.7631 14.9672 32.3943C14.3898 33.0085 14.4316 33.3659 14.4511 33.5317C14.4539 33.5557 14.4564 33.5756 14.4564 33.5918C14.456 33.6724 14.4606 33.8346 14.4667 34.0408C14.4702 34.1623 14.4742 34.2991 14.4779 34.4435L14.4903 34.9344C14.4925 34.971 14.4933 35.0084 14.4941 35.0466C14.4974 35.2089 14.5012 35.3852 14.6056 35.5759C14.734 35.811 15.348 36.6694 18.2425 37.4988C19.224 37.78 20.3466 37.4114 21.0602 37.0941C21.3586 36.9742 21.5839 36.86 21.695 36.8012C21.7121 36.7921 21.7251 36.7783 21.7333 36.7618C21.7356 36.7573 21.7393 36.7531 21.7437 36.7507C21.7503 36.7471 21.7541 36.7407 21.7545 36.7332C21.7675 36.4878 21.8168 36.1419 21.8931 35.7952C21.9806 35.4212 22.0992 35.0498 22.2336 34.8061C22.549 34.2337 23.2333 33.5203 23.7902 33.6968C24.4221 33.8973 24.3968 34.7994 24.3902 35.0148C24.3883 35.0782 24.382 35.1206 24.3759 35.1624C24.3688 35.21 24.3619 35.2569 24.3615 35.3332C24.3615 35.3369 24.3617 35.3406 24.3621 35.3441C24.3625 35.3476 24.3629 35.351 24.3629 35.3545C24.363 35.3672 24.3633 35.3811 24.364 35.3966C24.365 35.4203 24.3906 35.4342 24.4114 35.4228C24.419 35.4186 24.428 35.4179 24.4367 35.4192C24.4555 35.422 24.4756 35.419 24.4943 35.4088L29.2804 32.8048C29.3058 32.791 29.3236 32.7662 29.3267 32.7375C29.3383 32.6307 29.3348 32.5068 29.331 32.3687V32.3687C29.3203 31.9872 29.3066 31.497 29.5975 30.9565C29.8634 30.4626 30.2605 30.13 30.6314 30.2362C31.0024 30.3423 31.1125 30.7361 31.1381 30.9563C31.1634 31.1726 31.1567 31.3718 31.1528 31.4874V31.4874L31.1528 31.4874C31.1513 31.5339 31.1502 31.5669 31.1518 31.5819C31.1574 31.6343 31.6757 31.165 31.7053 30.9904C31.7955 30.459 31.8046 29.9634 31.7366 29.4281C31.7254 29.3405 31.6875 29.1196 31.6606 29.033C31.6565 29.0199 31.6542 29.0063 31.6547 28.9925C31.6611 28.8081 31.6221 28.5383 31.5688 28.4249C31.564 28.4148 31.5593 28.4041 31.5544 28.3929C31.4972 28.2619 31.4078 28.0572 30.7521 27.7837C29.821 27.3953 27.2908 26.5423 27.1933 26.5234C26.9628 26.4786 26.6698 26.5078 26.4326 26.5314C26.2935 26.5453 26.1735 26.5572 26.0966 26.5512C24.9867 26.4641 23.7073 26.6495 22.0357 27.5465C21.8114 27.6485 21.59 27.764 21.3761 27.8948C20.8417 28.2217 20.3932 28.5658 20.0211 28.8813C19.5867 29.2311 19.2528 29.5441 19.013 29.7689C18.9128 29.8629 18.829 29.9414 18.7612 30.0008Z" fill="url(#paint4_linear_7_317)"/>
</g>
<g filter="url(#filter11_ddi_7_317)">
<path d="M23.2425 31.8093C23.8517 31.5388 24.1765 30.6931 25.0859 29.6893C25.1081 29.6647 25.0989 29.6251 25.0679 29.6136L21.2138 28.178C21.2068 28.1754 21.1994 28.1745 21.1922 28.1764C21.1246 28.1933 20.7327 28.3272 19.6679 29.3126C19.1326 29.808 19.0262 29.9362 18.7482 30.134C18.7042 30.1653 18.7137 30.2315 18.8815 30.3628C19.4163 30.7813 22.3416 32.2093 23.2425 31.8093Z" fill="url(#paint5_linear_7_317)"/>
</g>
<g filter="url(#filter12_di_7_317)">
<path d="M27.5027 28.4561C28.3056 28.1808 28.5138 28.1741 29.0717 28.1284C29.4556 28.097 30.0675 28.1384 30.1385 28.3098C30.2094 28.4812 29.4842 29.0436 29.1826 29.2206C29.0352 29.3072 23.9432 32.0229 24.0995 31.7132C24.292 31.3317 25.1947 30.233 25.5012 29.7859C26.0121 29.0405 26.6998 28.7314 27.5027 28.4561Z" fill="url(#paint6_linear_7_317)"/>
</g>
<g filter="url(#filter13_di_7_317)">
<path d="M29.324 27.8999L25.8935 26.603C25.8935 26.603 25.9703 26.6279 26.3868 26.6112C26.5321 26.6054 30.0928 27.9646 30.1191 27.9866L29.324 27.8999Z" fill="url(#paint7_linear_7_317)"/>
</g>
<g filter="url(#filter14_f_7_317)">
<path d="M21.7296 33.7137C23.0182 33.0744 23.7316 32.2948 24.4995 31.5793C22.1777 32.3324 17.3197 33.9747 17.399 34.0715C17.498 34.1926 17.8534 34.3301 19.0239 34.3793C20.1764 34.4276 21.582 33.7869 21.7296 33.7137Z" fill="url(#paint8_linear_7_317)" fill-opacity="0.21"/>
</g>
<g filter="url(#filter15_f_7_317)">
<path d="M16.6209 30.9481C16.6935 30.8853 17.6 29.8967 18.2849 29.3987C17.7373 30.5378 16.4856 33.0153 16.3631 33.0062C16.21 32.9948 15.5079 32.8817 15.29 32.4114C15.0754 31.9485 16.5302 31.0266 16.6209 30.9481Z" fill="url(#paint9_linear_7_317)" fill-opacity="0.13"/>
</g>
<g filter="url(#filter16_di_7_317)">
<path d="M26.3233 31.7794C26.3229 31.7615 26.3326 31.745 26.3485 31.7368L26.7877 31.5092C26.8183 31.4934 26.8547 31.5149 26.8556 31.5493L26.8574 31.6212C26.8579 31.6391 26.8481 31.6557 26.8321 31.6639L26.3929 31.8906C26.3624 31.9064 26.326 31.8848 26.3251 31.8504L26.3233 31.7794Z" fill="#323232"/>
</g>
<g filter="url(#filter17_di_7_317)">
<path d="M28.7904 30.6146C28.7899 30.5968 28.7997 30.5802 28.8155 30.572L29.2548 30.3444C29.2853 30.3286 29.3217 30.3501 29.3226 30.3845L29.3244 30.4564C29.3249 30.4743 29.3151 30.4909 29.2992 30.4991L28.8599 30.7258C28.8294 30.7415 28.793 30.72 28.7922 30.6856L28.7904 30.6146Z" fill="#323232"/>
</g>
<g filter="url(#filter18_f_7_317)">
<path d="M24.8684 34.9402L29.0417 32.764C29.0647 32.7521 29.0816 32.7312 29.0884 32.7062C29.1924 32.3245 29.3811 31.5948 29.3816 31.4418C29.3822 31.2438 24.4074 33.7673 24.595 34.2105C24.6919 34.4393 24.7138 34.664 24.7081 34.829C24.7053 34.9099 24.7967 34.9776 24.8684 34.9402Z" fill="url(#paint10_linear_7_317)" fill-opacity="0.12"/>
</g>
<path d="M20.6885 31.3036L23.6056 29.0627C23.9483 29.1463 24.7318 29.4734 24.8808 29.5251C25.0738 29.5921 25.1066 29.6313 25.1066 29.6313C25.1081 29.6891 25.0793 29.7151 24.9887 29.8077C24.8589 29.9404 24.8041 30.0014 24.4851 30.4308C24.0256 31.0491 23.6786 31.6225 23.3356 31.7666C23.0628 31.8813 22.6353 31.9864 22.0185 31.8C21.4672 31.6335 21.1254 31.4381 20.6885 31.3036Z" fill="#C4C4C4" fill-opacity="0.2"/>
<g opacity="0.17" filter="url(#filter19_f_7_317)">
<path d="M15.4618 33.1529C16.2878 33.7732 18.1125 34.6435 18.9204 34.7628" stroke="url(#paint11_linear_7_317)" stroke-width="1.53733" stroke-linecap="round" stroke-linejoin="round"/>
</g>
<g filter="url(#filter20_ddii_7_317)">
<path d="M14.8493 33.4024C14.6878 33.1954 14.7268 33.0256 14.743 32.76C14.7436 32.7528 14.745 32.7451 14.747 32.7381C14.8094 32.5273 14.525 32.9691 14.5017 33.2705C14.494 33.3702 14.5017 33.4205 14.5132 33.5121C14.5187 33.554 14.6117 33.8083 14.6001 33.864C14.5887 33.9197 14.6267 34.3007 14.6261 34.3584C14.6257 34.4161 14.8773 34.8392 15.5206 35.2371C16.0549 35.5677 16.8153 35.7742 16.8929 35.7834C16.9706 35.7926 17.0398 35.5311 17.0956 35.5153C17.2416 35.4741 17.6798 35.6225 17.8429 35.6592C18.0332 35.7019 18.4773 35.8004 18.958 35.7262C19.5525 35.6344 19.6421 35.5643 20.1829 35.2517C20.5256 35.0536 20.7677 34.6875 20.8665 34.4662C20.8933 34.4063 20.8388 34.3551 20.7771 34.3773C20.3998 34.5128 19.6223 34.8139 18.7386 34.9272C17.4256 35.0956 16.37 34.4963 16.2187 34.4101C15.5829 34.0479 15.2504 33.9164 14.8493 33.4024Z" fill="#272727"/>
</g>
<mask id="mask0_7_317" style="mask-type:alpha" maskUnits="userSpaceOnUse" x="14" y="32" width="7" height="4">
<path d="M14.8493 33.3998C14.7212 33.2357 14.7092 33.0411 14.7354 32.8693C14.7498 32.7757 14.6573 32.7265 14.611 32.8091C14.4965 33.0138 14.4501 33.1864 14.4379 33.2813C14.4302 33.381 14.4342 33.4441 14.4458 33.5358C14.4511 33.5777 14.6112 33.8056 14.5998 33.8613C14.5883 33.917 14.626 34.298 14.6254 34.3557C14.625 34.4134 14.8765 34.8367 15.5193 35.235C16.0534 35.5659 16.8137 35.773 16.8913 35.7822C16.969 35.7914 17.0384 35.5299 17.0942 35.5142C17.2402 35.4731 17.6783 35.6218 17.8414 35.6586C18.0317 35.7014 18.4757 35.8002 18.9564 35.7263C19.5511 35.6349 19.6407 35.5648 20.1817 35.2526C20.5245 35.0547 20.7668 34.6887 20.8658 34.4675C20.8926 34.4077 20.8381 34.3564 20.7764 34.3785C20.399 34.5139 19.6213 34.8144 18.7376 34.9272C17.4245 35.0947 16.3692 34.4947 16.218 34.4085C15.5824 34.0458 15.2501 33.9142 14.8493 33.3998Z" fill="#999999"/>
</mask>
<g mask="url(#mask0_7_317)">
<g filter="url(#filter21_d_7_317)">
<path d="M19.9331 34.5739L18.1624 34.6456C18.1623 34.6459 18.1622 34.6463 18.1621 34.6466C18.1575 34.661 18.1518 34.6818 18.1473 34.707C18.1382 34.7578 18.1343 34.8252 18.1533 34.8942C18.1722 34.9626 18.2138 35.0341 18.2984 35.0942C18.3837 35.1547 18.5143 35.2049 18.7127 35.2264C18.8306 35.2392 18.993 35.2344 19.1591 35.1985C19.3253 35.1626 19.4928 35.0959 19.6227 34.9868C19.693 34.9278 19.7782 34.8126 19.8474 34.7088C19.8815 34.6576 19.9111 34.6102 19.9321 34.5756C19.9324 34.575 19.9328 34.5745 19.9331 34.5739Z" stroke="white" stroke-opacity="0.9" stroke-width="0.0693166"/>
</g>
<g filter="url(#filter22_d_7_317)">
<path d="M14.742 32.8504C14.7418 32.8507 14.7416 32.851 14.7414 32.8514C14.726 32.8806 14.7065 32.9226 14.6917 32.9737C14.6621 33.0757 14.6509 33.2122 14.7217 33.3553C14.742 33.396 14.7698 33.4228 14.7978 33.4333C14.8238 33.443 14.8549 33.4408 14.8892 33.4133C14.9129 33.3944 14.9462 33.3863 14.9764 33.3825C15.0081 33.3785 15.0428 33.3785 15.0743 33.3801C15.0877 33.3808 15.1007 33.3818 15.113 33.3829L14.742 32.8504Z" stroke="white" stroke-opacity="0.9" stroke-width="0.0693166"/>
</g>
</g>
<path d="M3.86913 26.1592C3.94103 26.3646 4.0232 26.6317 4.11565 26.9604C4.21836 27.2788 4.32621 27.6126 4.43919 27.9618C4.55218 28.3111 4.64976 28.6346 4.73193 28.9325C4.86546 29.3639 4.99898 29.8209 5.13251 30.3037C5.27631 30.7865 5.4047 31.223 5.51769 31.6133C5.64094 31.9933 5.72825 32.2655 5.77961 32.4299C5.81042 32.5326 5.8361 32.6302 5.85664 32.7226C5.88746 32.815 5.91313 32.9024 5.93368 32.9845C5.96449 33.0564 5.99017 33.1283 6.01071 33.2002C6.03125 33.2619 6.0518 33.3235 6.07234 33.3851C6.09288 33.4365 6.10829 33.4827 6.11856 33.5238C6.12883 33.5649 6.1391 33.6008 6.14938 33.6316C6.15965 33.6624 6.16992 33.683 6.18019 33.6932C6.19046 33.7035 6.1956 33.7087 6.1956 33.7087C6.20587 33.6984 6.21614 33.683 6.22641 33.6624C6.23668 33.6316 6.24695 33.5957 6.25722 33.5546C6.2675 33.5135 6.27777 33.4621 6.28804 33.4005C6.30858 33.3389 6.32912 33.2721 6.34967 33.2002C6.37021 33.1181 6.39075 33.0359 6.41129 32.9537C6.43184 32.8613 6.45238 32.7688 6.47292 32.6764C6.50374 32.5737 6.53455 32.471 6.56536 32.3682C6.58591 32.2655 6.62699 32.0961 6.68862 31.8598C6.75025 31.6236 6.81701 31.3514 6.88891 31.0432C6.96081 30.7351 7.03271 30.4321 7.10461 30.1342C7.18678 29.8261 7.25355 29.559 7.3049 29.3331C7.35626 29.1584 7.40762 28.9633 7.45897 28.7476C7.51033 28.5319 7.56169 28.3059 7.61304 28.0697C7.67467 27.8334 7.7363 27.5869 7.79793 27.3301C7.86983 27.0734 7.93659 26.8166 7.99822 26.5598C8.05985 26.2927 8.16256 26.0976 8.30636 25.9743C8.46043 25.8408 8.61964 25.774 8.78398 25.774C8.94832 25.774 9.10239 25.8408 9.24619 25.9743C9.40026 26.1079 9.50811 26.3081 9.56974 26.5752C9.63136 26.8423 9.69299 27.1042 9.75462 27.361C9.82652 27.6177 9.88815 27.8643 9.9395 28.1005C10.0011 28.3265 10.0525 28.5422 10.0936 28.7476C10.1449 28.953 10.1912 29.1379 10.2322 29.3022C10.3144 29.6309 10.4069 30.011 10.5096 30.4424C10.6225 30.8635 10.7253 31.2589 10.8177 31.6287C10.9204 31.9882 10.9923 32.245 11.0334 32.3991C11.0539 32.5018 11.0796 32.6045 11.1104 32.7072C11.1413 32.7996 11.1669 32.8972 11.1875 32.9999C11.2183 33.0924 11.244 33.1848 11.2645 33.2773C11.2851 33.3594 11.3056 33.4365 11.3261 33.5084C11.3467 33.57 11.3621 33.6213 11.3724 33.6624C11.3826 33.7035 11.3878 33.7395 11.3878 33.7703C11.398 33.8011 11.4032 33.8216 11.4032 33.8319C11.4134 33.8422 11.4186 33.8422 11.4186 33.8319C11.4289 33.8216 11.4391 33.8062 11.4494 33.7857C11.4597 33.7549 11.4699 33.7138 11.4802 33.6624C11.5008 33.6111 11.5213 33.5494 11.5418 33.4775C11.5624 33.4057 11.5829 33.3286 11.6035 33.2464C11.6343 33.154 11.6651 33.0616 11.6959 32.9691C11.7267 32.8664 11.7575 32.7688 11.7883 32.6764C11.8192 32.5839 11.85 32.4915 11.8808 32.3991C11.9219 32.2553 11.9835 32.055 12.0657 31.7982C12.1478 31.5311 12.2403 31.2281 12.343 30.8892C12.4457 30.5399 12.5536 30.1804 12.6665 29.8107C12.7795 29.4306 12.8874 29.0609 12.9901 28.7014C13.0825 28.383 13.175 28.0697 13.2674 27.7615C13.3599 27.4534 13.4472 27.1658 13.5293 26.8987C13.6218 26.6214 13.6988 26.3749 13.7604 26.1592C13.8426 25.9127 13.9659 25.7484 14.1302 25.6662C14.3048 25.5737 14.4794 25.5583 14.6541 25.62C14.8287 25.6713 14.9622 25.7792 15.0546 25.9435C15.1574 26.1079 15.1676 26.3133 15.0855 26.5598C15.0238 26.7755 14.9519 27.022 14.8698 27.2993C14.7876 27.5664 14.7003 27.8488 14.6078 28.1467C14.5257 28.4343 14.4384 28.7219 14.3459 29.0095C14.2329 29.3998 14.1251 29.7696 14.0224 30.1188C13.9197 30.4578 13.8221 30.7813 13.7296 31.0895C13.6372 31.3976 13.5447 31.7006 13.4523 31.9985C13.3599 32.2963 13.2674 32.5942 13.175 32.8921C13.1236 33.0462 13.0723 33.2054 13.0209 33.3697C12.9798 33.534 12.9336 33.7035 12.8822 33.8781C12.8309 34.0425 12.7744 34.2171 12.7128 34.402C12.6511 34.5766 12.5895 34.7615 12.5279 34.9566C12.4663 35.1518 12.3944 35.3521 12.3122 35.5575C12.2403 35.7629 12.1324 35.9273 11.9886 36.0505C11.8551 36.1738 11.7062 36.256 11.5418 36.297C11.3775 36.3381 11.2132 36.3381 11.0488 36.297C10.8947 36.2662 10.7561 36.1892 10.6328 36.0659C10.5198 35.9427 10.4377 35.7835 10.3863 35.5883C10.3452 35.3829 10.299 35.1877 10.2476 35.0028C10.2066 34.8077 10.1603 34.6228 10.109 34.4482C10.0679 34.2633 10.0268 34.0836 9.98573 33.9089C9.94464 33.7343 9.89842 33.5597 9.84706 33.3851C9.80598 33.2105 9.76489 33.0359 9.72381 32.8613C9.67245 32.6456 9.61082 32.4093 9.53892 32.1525C9.46702 31.8855 9.38999 31.5979 9.30782 31.2898C9.23592 30.9816 9.15375 30.6478 9.0613 30.2883C8.96886 29.9288 8.87128 29.5436 8.76857 29.1328C8.69667 28.8349 8.60423 28.5832 8.49124 28.3778C8.37826 28.1621 8.27041 27.967 8.1677 27.7924C8.07525 27.6177 8.00849 27.4329 7.9674 27.2377C7.92632 27.0425 7.93659 26.8166 7.99822 26.5598C8.05985 26.2927 8.16256 26.0976 8.30636 25.9743C8.46043 25.8408 8.61964 25.774 8.78398 25.774C8.94832 25.774 9.10239 25.8408 9.24619 25.9743C9.40026 26.1079 9.50811 26.3081 9.56974 26.5752C9.63136 26.8423 9.64164 27.0734 9.60055 27.2685C9.55946 27.4534 9.4927 27.628 9.40026 27.7924C9.30782 27.9567 9.2051 28.1416 9.09212 28.347C8.97913 28.5524 8.88669 28.8041 8.81479 29.102C8.71208 29.5128 8.6145 29.898 8.52206 30.2575C8.42962 30.617 8.34231 30.9508 8.26014 31.2589C8.18824 31.5671 8.11634 31.8547 8.04444 32.1217C7.98281 32.3785 7.92632 32.6148 7.87496 32.8305C7.83388 33.0051 7.78766 33.1745 7.7363 33.3389C7.69521 33.5032 7.64899 33.6676 7.59764 33.8319C7.55655 33.9963 7.51033 34.1657 7.45897 34.3403C7.40762 34.515 7.35626 34.6998 7.3049 34.895C7.25355 35.0902 7.19705 35.3007 7.13542 35.5267C7.0738 35.7527 6.98135 35.9324 6.8581 36.0659C6.73484 36.1995 6.59618 36.2868 6.44211 36.3279C6.29831 36.3689 6.14938 36.3689 5.9953 36.3279C5.84123 36.2868 5.70257 36.2046 5.57931 36.0813C5.45606 35.9478 5.36362 35.7783 5.30199 35.5729C5.24036 35.3675 5.17873 35.1723 5.1171 34.9874C5.06575 34.8026 5.00925 34.6279 4.94763 34.4636C4.89627 34.289 4.84491 34.1195 4.79356 33.9552C4.7422 33.7908 4.69084 33.6265 4.63949 33.4621C4.58813 33.2875 4.53677 33.1129 4.48542 32.9383C4.3827 32.5891 4.26972 32.2193 4.14646 31.829C4.03348 31.4387 3.91536 31.0381 3.7921 30.6272C3.66884 30.2061 3.54559 29.785 3.42233 29.3639C3.32989 29.0557 3.22717 28.727 3.11419 28.3778C3.0012 28.0286 2.89336 27.6948 2.79064 27.3764C2.6982 27.0477 2.61603 26.7755 2.54413 26.5598C2.47223 26.3133 2.4825 26.1079 2.57494 25.9435C2.66739 25.7792 2.80091 25.6713 2.97553 25.62C3.15014 25.5583 3.32475 25.5737 3.49937 25.6662C3.67398 25.7484 3.79723 25.9127 3.86913 26.1592ZM37.3627 30.1804C37.1778 30.0983 36.9929 30.0264 36.808 29.9647C36.6232 29.9031 36.4383 29.8569 36.2534 29.8261C36.0788 29.7953 35.9042 29.7799 35.7295 29.7799C35.4933 29.7799 35.2725 29.8107 35.067 29.8723C34.8616 29.9339 34.6921 30.0315 34.5586 30.165C34.4354 30.2883 34.3737 30.4526 34.3737 30.6581C34.3737 30.7916 34.4302 30.9148 34.5432 31.0278C34.6562 31.1305 34.8 31.223 34.9746 31.3052C35.1492 31.3873 35.329 31.4644 35.5138 31.5363C35.6987 31.5979 35.8631 31.6492 36.0069 31.6903C36.4999 31.8547 36.9467 32.0396 37.3473 32.245C37.7581 32.4401 38.0817 32.6918 38.3179 32.9999C38.5644 33.3081 38.6877 33.7035 38.6877 34.1863C38.6877 34.6279 38.5696 35.0183 38.3333 35.3572C38.0971 35.6859 37.7735 35.9427 37.3627 36.1276C36.9621 36.3022 36.4948 36.3895 35.9607 36.3895C35.5498 36.3895 35.1184 36.3279 34.6665 36.2046C34.2145 36.0813 33.7677 35.9016 33.3261 35.6653C33.0898 35.5421 32.946 35.388 32.8947 35.2031C32.8536 35.0183 32.8741 34.8436 32.9563 34.6793C33.0487 34.515 33.1823 34.402 33.3569 34.3403C33.5417 34.2787 33.7472 34.3095 33.9731 34.4328C34.1991 34.556 34.4251 34.6588 34.6511 34.7409C34.877 34.8231 35.0979 34.8899 35.3136 34.9412C35.5395 34.9823 35.7552 35.0028 35.9607 35.0028C36.1969 35.0028 36.4126 34.9772 36.6077 34.9258C36.8132 34.8642 36.9775 34.7769 37.1008 34.6639C37.2343 34.5406 37.3011 34.3814 37.3011 34.1863C37.3011 33.9706 37.2035 33.7908 37.0083 33.647C36.8132 33.493 36.5769 33.3697 36.2996 33.2773C36.0326 33.1745 35.7912 33.0872 35.5755 33.0153C35.0927 32.851 34.6562 32.6764 34.2659 32.4915C33.8756 32.2963 33.5623 32.0601 33.3261 31.7828C33.1001 31.4952 32.9871 31.1203 32.9871 30.6581C32.9871 30.2061 33.1052 29.8107 33.3415 29.4717C33.5777 29.1328 33.9012 28.8708 34.3121 28.686C34.723 28.4908 35.1954 28.3932 35.7295 28.3932C36.0788 28.3932 36.4434 28.4395 36.8234 28.5319C37.2035 28.6141 37.5887 28.7527 37.979 28.9479C38.2049 29.0609 38.3436 29.2098 38.395 29.3947C38.4566 29.5693 38.4463 29.7388 38.3641 29.9031C38.2923 30.0675 38.1639 30.1856 37.979 30.2575C37.8044 30.3294 37.5989 30.3037 37.3627 30.1804ZM40.3966 35.6037C40.3966 35.388 40.3966 35.1569 40.3966 34.9104C40.3966 34.6639 40.3966 34.4174 40.3966 34.1709C40.3966 33.9244 40.3966 33.6932 40.3966 33.4775C40.3966 32.6558 40.3966 31.7571 40.3966 30.7813C40.3966 29.8055 40.3966 28.7065 40.3966 27.4842C40.3966 27.2069 40.3966 26.8833 40.3966 26.5136C40.3966 26.1438 40.3966 25.81 40.3966 25.5121C40.3966 25.2553 40.4633 25.0602 40.5968 24.9266C40.7406 24.7931 40.905 24.7264 41.0899 24.7264C41.2748 24.7264 41.434 24.7931 41.5675 24.9266C41.7113 25.0602 41.7832 25.2553 41.7832 25.5121C41.7832 25.7586 41.7832 25.9897 41.7832 26.2054C41.7832 26.4109 41.7832 26.6214 41.7832 26.8371C41.7832 27.0425 41.7832 27.2582 41.7832 27.4842C41.7832 28.0286 41.7832 28.6089 41.7832 29.2252C41.7832 29.8415 41.7832 30.504 41.7832 31.2127C41.7832 31.9112 41.7832 32.6661 41.7832 33.4775C41.7832 33.7343 41.7832 33.9757 41.7832 34.2017C41.7832 34.4276 41.7832 34.6536 41.7832 34.8796C41.7832 35.1056 41.7832 35.3469 41.7832 35.6037C41.7832 35.8605 41.7113 36.0557 41.5675 36.1892C41.434 36.3227 41.2748 36.3895 41.0899 36.3895C40.905 36.3895 40.7406 36.3227 40.5968 36.1892C40.4633 36.0557 40.3966 35.8605 40.3966 35.6037ZM49.3703 35.6037C49.3703 35.388 49.3703 35.1621 49.3703 34.9258C49.3703 34.6793 49.3703 34.4379 49.3703 34.2017C49.3703 33.9552 49.3703 33.7292 49.3703 33.5238C49.3703 33.2773 49.3703 33.0051 49.3703 32.7072C49.3703 32.3991 49.3703 32.0652 49.3703 31.7057C49.3703 31.2743 49.2984 30.92 49.1546 30.6427C49.0211 30.3551 48.8208 30.1394 48.5537 29.9956C48.2867 29.8518 47.958 29.7799 47.5677 29.7799C47.2287 29.7799 46.9206 29.8364 46.6433 29.9493C46.3659 30.0521 46.1246 30.2061 45.9191 30.4116C45.724 30.617 45.5699 30.8738 45.4569 31.1819C45.3439 31.49 45.2874 31.8444 45.2874 32.245C45.2874 32.4196 45.2874 32.6507 45.2874 32.9383C45.2874 33.2156 45.2874 33.5135 45.2874 33.8319C45.2874 34.1503 45.2874 34.4687 45.2874 34.7871C45.2874 35.0953 45.2874 35.3675 45.2874 35.6037C45.2874 35.8091 45.2412 35.9786 45.1488 36.1122C45.0563 36.2354 44.9382 36.3176 44.7944 36.3587C44.6609 36.3997 44.5222 36.3997 44.3784 36.3587C44.2449 36.3176 44.1319 36.2354 44.0395 36.1122C43.947 35.9786 43.9008 35.8091 43.9008 35.6037C43.9008 35.4086 43.9008 35.1466 43.9008 34.818C43.9008 34.479 43.9008 34.1144 43.9008 33.7241C43.9008 33.3235 43.9008 32.9383 43.9008 32.5685C43.9008 32.1885 43.9008 31.8598 43.9008 31.5825C43.9008 31.3052 43.9008 31.1151 43.9008 31.0124C43.9008 30.807 43.9008 30.6016 43.9008 30.3961C43.9008 30.1907 43.9008 29.9853 43.9008 29.7799C43.9008 29.5744 43.9008 29.369 43.9008 29.1636C43.9008 28.9068 43.9676 28.7116 44.1011 28.5781C44.2449 28.4446 44.4092 28.3778 44.5941 28.3778C44.779 28.3778 44.9382 28.4446 45.0717 28.5781C45.2155 28.7116 45.2874 28.9068 45.2874 29.1636C45.2874 29.3896 45.2874 29.6001 45.2874 29.7953C45.2874 29.9904 45.2874 30.1856 45.2874 30.3807C45.2874 30.5759 45.2874 30.7865 45.2874 31.0124C45.2874 31.0741 45.2874 31.2435 45.2874 31.5209C45.2874 31.7879 45.2874 32.1166 45.2874 32.5069C45.2874 32.8869 45.2874 33.2824 45.2874 33.6932C45.2874 34.0938 45.2874 34.4687 45.2874 34.818C45.2874 35.1569 45.2874 35.4188 45.2874 35.6037C45.2874 35.8091 45.2412 35.9786 45.1488 36.1122C45.0563 36.2354 44.9382 36.3176 44.7944 36.3587C44.6609 36.3997 44.5222 36.3997 44.3784 36.3587C44.2449 36.3176 44.1319 36.2354 44.0395 36.1122C43.947 35.9786 43.9008 35.8091 43.9008 35.6037C43.9008 35.3675 43.9008 35.121 43.9008 34.8642C43.9008 34.5971 43.9008 34.3249 43.9008 34.0476C43.9008 33.7703 43.9008 33.493 43.9008 33.2156C43.9008 32.928 43.9008 32.6558 43.9008 32.3991C43.9008 31.8752 43.9933 31.3719 44.1781 30.8892C44.3733 30.4064 44.6404 29.9802 44.9793 29.6104C45.3183 29.2303 45.7188 28.9325 46.1811 28.7168C46.6433 28.5011 47.1414 28.3932 47.6755 28.3932C48.1172 28.3932 48.5229 28.4651 48.8927 28.6089C49.2727 28.7527 49.6014 28.9684 49.8787 29.256C50.1561 29.5333 50.3718 29.8774 50.5258 30.2883C50.6799 30.6991 50.7569 31.1716 50.7569 31.7057C50.7569 31.942 50.7569 32.2142 50.7569 32.5223C50.7569 32.8202 50.7569 33.154 50.7569 33.5238C50.7569 33.7806 50.7569 34.0219 50.7569 34.2479C50.7569 34.4636 50.7569 34.6793 50.7569 34.895C50.7569 35.1107 50.7569 35.3469 50.7569 35.6037C50.7569 35.8605 50.685 36.0557 50.5412 36.1892C50.4077 36.3227 50.2485 36.3895 50.0636 36.3895C49.8787 36.3895 49.7144 36.3227 49.5706 36.1892C49.4371 36.0557 49.3703 35.8605 49.3703 35.6037Z" fill="white"/>
<defs>
<filter id="filter0_f_7_317" x="14.0844" y="29.9212" width="18.5258" height="8.68607" filterUnits="userSpaceOnUse" color-interpolation-filters="sRGB">
<feFlood flood-opacity="0" result="BackgroundImageFix"/>
<feBlend mode="normal" in="SourceGraphic" in2="BackgroundImageFix" result="shape"/>
<feGaussianBlur stdDeviation="0.101481" result="effect1_foregroundBlur_7_317"/>
</filter>
<filter id="filter1_d_7_317" x="22.3112" y="34.0622" width="1.84737" height="2.62323" filterUnits="userSpaceOnUse" color-interpolation-filters="sRGB">
<feFlood flood-opacity="0" result="BackgroundImageFix"/>
<feColorMatrix in="SourceAlpha" type="matrix" values="0 0 0 0 0 0 0 0 0 0 0 0 0 0 0 0 0 0 127 0" result="hardAlpha"/>
<feOffset/>
<feGaussianBlur stdDeviation="0.0116465"/>
<feComposite in2="hardAlpha" operator="out"/>
<feColorMatrix type="matrix" values="0 0 0 0 0 0 0 0 0 0 0 0 0 0 0 0 0 0 0.25 0"/>
<feBlend mode="normal" in2="BackgroundImageFix" result="effect1_dropShadow_7_317"/>
<feBlend mode="normal" in="SourceGraphic" in2="effect1_dropShadow_7_317" result="shape"/>
</filter>
<filter id="filter2_di_7_317" x="22.4167" y="34.2985" width="1.58019" height="2.19253" filterUnits="userSpaceOnUse" color-interpolation-filters="sRGB">
<feFlood flood-opacity="0" result="BackgroundImageFix"/>
<feColorMatrix in="SourceAlpha" type="matrix" values="0 0 0 0 0 0 0 0 0 0 0 0 0 0 0 0 0 0 127 0" result="hardAlpha"/>
<feOffset dy="0.00931715"/>
<feGaussianBlur stdDeviation="0.00698788"/>
<feColorMatrix type="matrix" values="0 0 0 0 1 0 0 0 0 1 0 0 0 0 1 0 0 0 0.41 0"/>
<feBlend mode="normal" in2="BackgroundImageFix" result="effect1_dropShadow_7_317"/>
<feBlend mode="normal" in="SourceGraphic" in2="effect1_dropShadow_7_317" result="shape"/>
<feColorMatrix in="SourceAlpha" type="matrix" values="0 0 0 0 0 0 0 0 0 0 0 0 0 0 0 0 0 0 127 0" result="hardAlpha"/>
<feOffset dx="-0.0698788" dy="0.0465858"/>
<feGaussianBlur stdDeviation="0.0349394"/>
<feComposite in2="hardAlpha" operator="arithmetic" k2="-1" k3="1"/>
<feColorMatrix type="matrix" values="0 0 0 0 0 0 0 0 0 0 0 0 0 0 0 0 0 0 0.25 0"/>
<feBlend mode="normal" in2="shape" result="effect2_innerShadow_7_317"/>
</filter>
<filter id="filter3_d_7_317" x="22.328" y="34.0677" width="1.79473" height="2.6124" filterUnits="userSpaceOnUse" color-interpolation-filters="sRGB">
<feFlood flood-opacity="0" result="BackgroundImageFix"/>
<feColorMatrix in="SourceAlpha" type="matrix" values="0 0 0 0 0 0 0 0 0 0 0 0 0 0 0 0 0 0 127 0" result="hardAlpha"/>
<feOffset/>
<feGaussianBlur stdDeviation="0.028882"/>
<feComposite in2="hardAlpha" operator="out"/>
<feColorMatrix type="matrix" values="0 0 0 0 0 0 0 0 0 0 0 0 0 0 0 0 0 0 0.25 0"/>
<feBlend mode="normal" in2="BackgroundImageFix" result="effect1_dropShadow_7_317"/>
<feBlend mode="normal" in="SourceGraphic" in2="effect1_dropShadow_7_317" result="shape"/>
</filter>
<filter id="filter4_di_7_317" x="22.5301" y="34.4442" width="1.34166" height="1.90255" filterUnits="userSpaceOnUse" color-interpolation-filters="sRGB">
<feFlood flood-opacity="0" result="BackgroundImageFix"/>
<feColorMatrix in="SourceAlpha" type="matrix" values="0 0 0 0 0 0 0 0 0 0 0 0 0 0 0 0 0 0 127 0" result="hardAlpha"/>
<feOffset dy="0.0196999"/>
<feGaussianBlur stdDeviation="0.0123124"/>
<feColorMatrix type="matrix" values="0 0 0 0 1 0 0 0 0 1 0 0 0 0 1 0 0 0 0.59 0"/>
<feBlend mode="normal" in2="BackgroundImageFix" result="effect1_dropShadow_7_317"/>
<feBlend mode="normal" in="SourceGraphic" in2="effect1_dropShadow_7_317" result="shape"/>
<feColorMatrix in="SourceAlpha" type="matrix" values="0 0 0 0 0 0 0 0 0 0 0 0 0 0 0 0 0 0 127 0" result="hardAlpha"/>
<feOffset dx="-0.0738745" dy="0.0492497"/>
<feGaussianBlur stdDeviation="0.0369374"/>
<feComposite in2="hardAlpha" operator="arithmetic" k2="-1" k3="1"/>
<feColorMatrix type="matrix" values="0 0 0 0 0 0 0 0 0 0 0 0 0 0 0 0 0 0 0.25 0"/>
<feBlend mode="normal" in2="shape" result="effect2_innerShadow_7_317"/>
</filter>
<filter id="filter5_d_7_317" x="29.5689" y="30.4766" width="1.40859" height="2.24368" filterUnits="userSpaceOnUse" color-interpolation-filters="sRGB">
<feFlood flood-opacity="0" result="BackgroundImageFix"/>
<feColorMatrix in="SourceAlpha" type="matrix" values="0 0 0 0 0 0 0 0 0 0 0 0 0 0 0 0 0 0 127 0" result="hardAlpha"/>
<feOffset/>
<feGaussianBlur stdDeviation="0.00961778"/>
<feComposite in2="hardAlpha" operator="out"/>
<feColorMatrix type="matrix" values="0 0 0 0 0 0 0 0 0 0 0 0 0 0 0 0 0 0 0.25 0"/>
<feBlend mode="normal" in2="BackgroundImageFix" result="effect1_dropShadow_7_317"/>
<feBlend mode="normal" in="SourceGraphic" in2="effect1_dropShadow_7_317" result="shape"/>
</filter>
<filter id="filter6_di_7_317" x="29.6466" y="30.6783" width="1.20768" height="1.87491" filterUnits="userSpaceOnUse" color-interpolation-filters="sRGB">
<feFlood flood-opacity="0" result="BackgroundImageFix"/>
<feColorMatrix in="SourceAlpha" type="matrix" values="0 0 0 0 0 0 0 0 0 0 0 0 0 0 0 0 0 0 127 0" result="hardAlpha"/>
<feOffset dy="0.00769423"/>
<feGaussianBlur stdDeviation="0.00577067"/>
<feColorMatrix type="matrix" values="0 0 0 0 1 0 0 0 0 1 0 0 0 0 1 0 0 0 0.41 0"/>
<feBlend mode="normal" in2="BackgroundImageFix" result="effect1_dropShadow_7_317"/>
<feBlend mode="normal" in="SourceGraphic" in2="effect1_dropShadow_7_317" result="shape"/>
<feColorMatrix in="SourceAlpha" type="matrix" values="0 0 0 0 0 0 0 0 0 0 0 0 0 0 0 0 0 0 127 0" result="hardAlpha"/>
<feOffset dx="-0.0577067" dy="0.0384711"/>
<feGaussianBlur stdDeviation="0.0288534"/>
<feComposite in2="hardAlpha" operator="arithmetic" k2="-1" k3="1"/>
<feColorMatrix type="matrix" values="0 0 0 0 0 0 0 0 0 0 0 0 0 0 0 0 0 0 0.25 0"/>
<feBlend mode="normal" in2="shape" result="effect2_innerShadow_7_317"/>
</filter>
<filter id="filter7_d_7_317" x="29.5816" y="30.5967" width="1.44976" height="2.21614" filterUnits="userSpaceOnUse" color-interpolation-filters="sRGB">
<feFlood flood-opacity="0" result="BackgroundImageFix"/>
<feColorMatrix in="SourceAlpha" type="matrix" values="0 0 0 0 0 0 0 0 0 0 0 0 0 0 0 0 0 0 127 0" result="hardAlpha"/>
<feOffset/>
<feGaussianBlur stdDeviation="0.028882"/>
<feComposite in2="hardAlpha" operator="out"/>
<feColorMatrix type="matrix" values="0 0 0 0 0 0 0 0 0 0 0 0 0 0 0 0 0 0 0.25 0"/>
<feBlend mode="normal" in2="BackgroundImageFix" result="effect1_dropShadow_7_317"/>
<feBlend mode="normal" in="SourceGraphic" in2="effect1_dropShadow_7_317" result="shape"/>
</filter>
<filter id="filter8_d_7_317" x="29.6221" y="30.6371" width="1.36885" height="2.13524" filterUnits="userSpaceOnUse" color-interpolation-filters="sRGB">
<feFlood flood-opacity="0" result="BackgroundImageFix"/>
<feColorMatrix in="SourceAlpha" type="matrix" values="0 0 0 0 0 0 0 0 0 0 0 0 0 0 0 0 0 0 127 0" result="hardAlpha"/>
<feOffset/>
<feGaussianBlur stdDeviation="0.00865588"/>
<feComposite in2="hardAlpha" operator="out"/>
<feColorMatrix type="matrix" values="0 0 0 0 0 0 0 0 0 0 0 0 0 0 0 0 0 0 0.25 0"/>
<feBlend mode="normal" in2="BackgroundImageFix" result="effect1_dropShadow_7_317"/>
<feBlend mode="normal" in="SourceGraphic" in2="effect1_dropShadow_7_317" result="shape"/>
</filter>
<filter id="filter9_di_7_317" x="29.765" y="30.9153" width="1.06725" height="1.62156" filterUnits="userSpaceOnUse" color-interpolation-filters="sRGB">
<feFlood flood-opacity="0" result="BackgroundImageFix"/>
<feColorMatrix in="SourceAlpha" type="matrix" values="0 0 0 0 0 0 0 0 0 0 0 0 0 0 0 0 0 0 127 0" result="hardAlpha"/>
<feOffset dy="0.0196999"/>
<feGaussianBlur stdDeviation="0.0123124"/>
<feColorMatrix type="matrix" values="0 0 0 0 1 0 0 0 0 1 0 0 0 0 1 0 0 0 0.59 0"/>
<feBlend mode="normal" in2="BackgroundImageFix" result="effect1_dropShadow_7_317"/>
<feBlend mode="normal" in="SourceGraphic" in2="effect1_dropShadow_7_317" result="shape"/>
<feColorMatrix in="SourceAlpha" type="matrix" values="0 0 0 0 0 0 0 0 0 0 0 0 0 0 0 0 0 0 127 0" result="hardAlpha"/>
<feOffset dx="-0.0738747" dy="0.0492497"/>
<feGaussianBlur stdDeviation="0.0369374"/>
<feComposite in2="hardAlpha" operator="arithmetic" k2="-1" k3="1"/>
<feColorMatrix type="matrix" values="0 0 0 0 0 0 0 0 0 0 0 0 0 0 0 0 0 0 0.25 0"/>
<feBlend mode="normal" in2="shape" result="effect2_innerShadow_7_317"/>
</filter>
<filter id="filter10_ii_7_317" x="14.4419" y="26.0379" width="17.6859" height="11.5609" filterUnits="userSpaceOnUse" color-interpolation-filters="sRGB">
<feFlood flood-opacity="0" result="BackgroundImageFix"/>
<feBlend mode="normal" in="SourceGraphic" in2="BackgroundImageFix" result="shape"/>
<feColorMatrix in="SourceAlpha" type="matrix" values="0 0 0 0 0 0 0 0 0 0 0 0 0 0 0 0 0 0 127 0" result="hardAlpha"/>
<feOffset dx="0.346583" dy="-0.462111"/>
<feGaussianBlur stdDeviation="1.38633"/>
<feComposite in2="hardAlpha" operator="arithmetic" k2="-1" k3="1"/>
<feColorMatrix type="matrix" values="0 0 0 0 0 0 0 0 0 0 0 0 0 0 0 0 0 0 0.07 0"/>
<feBlend mode="normal" in2="shape" result="effect1_innerShadow_7_317"/>
<feColorMatrix in="SourceAlpha" type="matrix" values="0 0 0 0 0 0 0 0 0 0 0 0 0 0 0 0 0 0 127 0" result="hardAlpha"/>
<feOffset dy="-0.0577639"/>
<feGaussianBlur stdDeviation="0.115528"/>
<feComposite in2="hardAlpha" operator="arithmetic" k2="-1" k3="1"/>
<feColorMatrix type="matrix" values="0 0 0 0 0 0 0 0 0 0 0 0 0 0 0 0 0 0 0.09 0"/>
<feBlend mode="normal" in2="effect1_innerShadow_7_317" result="effect2_innerShadow_7_317"/>
</filter>
<filter id="filter11_ddi_7_317" x="18.6327" y="28.1055" width="6.51207" height="3.84356" filterUnits="userSpaceOnUse" color-interpolation-filters="sRGB">
<feFlood flood-opacity="0" result="BackgroundImageFix"/>
<feColorMatrix in="SourceAlpha" type="matrix" values="0 0 0 0 0 0 0 0 0 0 0 0 0 0 0 0 0 0 127 0" result="hardAlpha"/>
<feOffset dx="-0.0465858" dy="0.023293"/>
<feGaussianBlur stdDeviation="0.023293"/>
<feColorMatrix type="matrix" values="0 0 0 0 1 0 0 0 0 1 0 0 0 0 1 0 0 0 0.28 0"/>
<feBlend mode="normal" in2="BackgroundImageFix" result="effect1_dropShadow_7_317"/>
<feColorMatrix in="SourceAlpha" type="matrix" values="0 0 0 0 0 0 0 0 0 0 0 0 0 0 0 0 0 0 127 0" result="hardAlpha"/>
<feOffset dy="-0.023293"/>
<feGaussianBlur stdDeviation="0.023293"/>
<feColorMatrix type="matrix" values="0 0 0 0 1 0 0 0 0 1 0 0 0 0 1 0 0 0 0.56 0"/>
<feBlend mode="normal" in2="effect1_dropShadow_7_317" result="effect2_dropShadow_7_317"/>
<feBlend mode="normal" in="SourceGraphic" in2="effect2_dropShadow_7_317" result="shape"/>
<feColorMatrix in="SourceAlpha" type="matrix" values="0 0 0 0 0 0 0 0 0 0 0 0 0 0 0 0 0 0 127 0" result="hardAlpha"/>
<feOffset dx="-0.023293" dy="0.0698788"/>
<feGaussianBlur stdDeviation="0.0349394"/>
<feComposite in2="hardAlpha" operator="arithmetic" k2="-1" k3="1"/>
<feColorMatrix type="matrix" values="0 0 0 0 0 0 0 0 0 0 0 0 0 0 0 0 0 0 0.75 0"/>
<feBlend mode="normal" in2="shape" result="effect3_innerShadow_7_317"/>
</filter>
<filter id="filter12_di_7_317" x="24.0028" y="28.1188" width="6.16462" height="3.71224" filterUnits="userSpaceOnUse" color-interpolation-filters="sRGB">
<feFlood flood-opacity="0" result="BackgroundImageFix"/>
<feColorMatrix in="SourceAlpha" type="matrix" values="0 0 0 0 0 0 0 0 0 0 0 0 0 0 0 0 0 0 127 0" result="hardAlpha"/>
<feOffset dy="0.024088"/>
<feGaussianBlur stdDeviation="0.012044"/>
<feColorMatrix type="matrix" values="0 0 0 0 0.925374 0 0 0 0 0.925374 0 0 0 0 0.925374 0 0 0 0.37 0"/>
<feBlend mode="normal" in2="BackgroundImageFix" result="effect1_dropShadow_7_317"/>
<feBlend mode="normal" in="SourceGraphic" in2="effect1_dropShadow_7_317" result="shape"/>
<feColorMatrix in="SourceAlpha" type="matrix" values="0 0 0 0 0 0 0 0 0 0 0 0 0 0 0 0 0 0 127 0" result="hardAlpha"/>
<feOffset dx="-0.0931716" dy="0.116465"/>
<feGaussianBlur stdDeviation="0.0465858"/>
<feComposite in2="hardAlpha" operator="arithmetic" k2="-1" k3="1"/>
<feColorMatrix type="matrix" values="0 0 0 0 0 0 0 0 0 0 0 0 0 0 0 0 0 0 0.8 0"/>
<feBlend mode="normal" in2="shape" result="effect2_innerShadow_7_317"/>
</filter>
<filter id="filter13_di_7_317" x="25.8004" y="26.603" width="4.34285" height="1.47677" filterUnits="userSpaceOnUse" color-interpolation-filters="sRGB">
<feFlood flood-opacity="0" result="BackgroundImageFix"/>
<feColorMatrix in="SourceAlpha" type="matrix" values="0 0 0 0 0 0 0 0 0 0 0 0 0 0 0 0 0 0 127 0" result="hardAlpha"/>
<feOffset dy="0.024088"/>
<feGaussianBlur stdDeviation="0.012044"/>
<feColorMatrix type="matrix" values="0 0 0 0 0.925374 0 0 0 0 0.925374 0 0 0 0 0.925374 0 0 0 0.37 0"/>
<feBlend mode="normal" in2="BackgroundImageFix" result="effect1_dropShadow_7_317"/>
<feBlend mode="normal" in="SourceGraphic" in2="effect1_dropShadow_7_317" result="shape"/>
<feColorMatrix in="SourceAlpha" type="matrix" values="0 0 0 0 0 0 0 0 0 0 0 0 0 0 0 0 0 0 127 0" result="hardAlpha"/>
<feOffset dx="-0.0931716" dy="0.116465"/>
<feGaussianBlur stdDeviation="0.0465858"/>
<feComposite in2="hardAlpha" operator="arithmetic" k2="-1" k3="1"/>
<feColorMatrix type="matrix" values="0 0 0 0 0 0 0 0 0 0 0 0 0 0 0 0 0 0 0.8 0"/>
<feBlend mode="normal" in2="shape" result="effect2_innerShadow_7_317"/>
</filter>
<filter id="filter14_f_7_317" x="17.0718" y="31.2532" width="7.75376" height="3.45474" filterUnits="userSpaceOnUse" color-interpolation-filters="sRGB">
<feFlood flood-opacity="0" result="BackgroundImageFix"/>
<feBlend mode="normal" in="SourceGraphic" in2="BackgroundImageFix" result="shape"/>
<feGaussianBlur stdDeviation="0.16305" result="effect1_foregroundBlur_7_317"/>
</filter>
<filter id="filter15_f_7_317" x="15.0587" y="29.189" width="3.43587" height="4.02685" filterUnits="userSpaceOnUse" color-interpolation-filters="sRGB">
<feFlood flood-opacity="0" result="BackgroundImageFix"/>
<feBlend mode="normal" in="SourceGraphic" in2="BackgroundImageFix" result="shape"/>
<feGaussianBlur stdDeviation="0.104818" result="effect1_foregroundBlur_7_317"/>
</filter>
<filter id="filter16_di_7_317" x="26.3117" y="31.4808" width="0.557285" height="0.47283" filterUnits="userSpaceOnUse" color-interpolation-filters="sRGB">
<feFlood flood-opacity="0" result="BackgroundImageFix"/>
<feColorMatrix in="SourceAlpha" type="matrix" values="0 0 0 0 0 0 0 0 0 0 0 0 0 0 0 0 0 0 127 0" result="hardAlpha"/>
<feOffset dy="-0.0115528"/>
<feGaussianBlur stdDeviation="0.00577639"/>
<feColorMatrix type="matrix" values="0 0 0 0 0.78755 0 0 0 0 0.78755 0 0 0 0 0.78755 0 0 0 0.19 0"/>
<feBlend mode="normal" in2="BackgroundImageFix" result="effect1_dropShadow_7_317"/>
<feBlend mode="normal" in="SourceGraphic" in2="effect1_dropShadow_7_317" result="shape"/>
<feColorMatrix in="SourceAlpha" type="matrix" values="0 0 0 0 0 0 0 0 0 0 0 0 0 0 0 0 0 0 127 0" result="hardAlpha"/>
<feOffset dy="0.0577639"/>
<feGaussianBlur stdDeviation="0.028882"/>
<feComposite in2="hardAlpha" operator="arithmetic" k2="-1" k3="1"/>
<feColorMatrix type="matrix" values="0 0 0 0 0 0 0 0 0 0 0 0 0 0 0 0 0 0 0.74 0"/>
<feBlend mode="normal" in2="shape" result="effect2_innerShadow_7_317"/>
</filter>
<filter id="filter17_di_7_317" x="28.7787" y="30.316" width="0.557285" height="0.472814" filterUnits="userSpaceOnUse" color-interpolation-filters="sRGB">
<feFlood flood-opacity="0" result="BackgroundImageFix"/>
<feColorMatrix in="SourceAlpha" type="matrix" values="0 0 0 0 0 0 0 0 0 0 0 0 0 0 0 0 0 0 127 0" result="hardAlpha"/>
<feOffset dy="-0.0115528"/>
<feGaussianBlur stdDeviation="0.00577639"/>
<feColorMatrix type="matrix" values="0 0 0 0 0.78755 0 0 0 0 0.78755 0 0 0 0 0.78755 0 0 0 0.19 0"/>
<feBlend mode="normal" in2="BackgroundImageFix" result="effect1_dropShadow_7_317"/>
<feBlend mode="normal" in="SourceGraphic" in2="effect1_dropShadow_7_317" result="shape"/>
<feColorMatrix in="SourceAlpha" type="matrix" values="0 0 0 0 0 0 0 0 0 0 0 0 0 0 0 0 0 0 127 0" result="hardAlpha"/>
<feOffset dy="0.0577639"/>
<feGaussianBlur stdDeviation="0.028882"/>
<feComposite in2="hardAlpha" operator="arithmetic" k2="-1" k3="1"/>
<feColorMatrix type="matrix" values="0 0 0 0 0 0 0 0 0 0 0 0 0 0 0 0 0 0 0.74 0"/>
<feBlend mode="normal" in2="shape" result="effect2_innerShadow_7_317"/>
</filter>
<filter id="filter18_f_7_317" x="24.52" y="31.3609" width="4.93151" height="3.65974" filterUnits="userSpaceOnUse" color-interpolation-filters="sRGB">
<feFlood flood-opacity="0" result="BackgroundImageFix"/>
<feBlend mode="normal" in="SourceGraphic" in2="BackgroundImageFix" result="shape"/>
<feGaussianBlur stdDeviation="0.0349394" result="effect1_foregroundBlur_7_317"/>
</filter>
<filter id="filter19_f_7_317" x="14.5767" y="32.2678" width="5.22902" height="3.38031" filterUnits="userSpaceOnUse" color-interpolation-filters="sRGB">
<feFlood flood-opacity="0" result="BackgroundImageFix"/>
<feBlend mode="normal" in="SourceGraphic" in2="BackgroundImageFix" result="shape"/>
<feGaussianBlur stdDeviation="0.0582323" result="effect1_foregroundBlur_7_317"/>
</filter>
<filter id="filter20_ddii_7_317" x="14.4695" y="32.6396" width="6.43298" height="3.34388" filterUnits="userSpaceOnUse" color-interpolation-filters="sRGB">
<feFlood flood-opacity="0" result="BackgroundImageFix"/>
<feColorMatrix in="SourceAlpha" type="matrix" values="0 0 0 0 0 0 0 0 0 0 0 0 0 0 0 0 0 0 127 0" result="hardAlpha"/>
<feOffset dy="0.0217436"/>
<feGaussianBlur stdDeviation="0.0144957"/>
<feColorMatrix type="matrix" values="0 0 0 0 0 0 0 0 0 0 0 0 0 0 0 0 0 0 0.57 0"/>
<feBlend mode="normal" in2="BackgroundImageFix" result="effect1_dropShadow_7_317"/>
<feColorMatrix in="SourceAlpha" type="matrix" values="0 0 0 0 0 0 0 0 0 0 0 0 0 0 0 0 0 0 127 0" result="hardAlpha"/>
<feOffset dy="-0.0144957"/>
<feGaussianBlur stdDeviation="0.0144957"/>
<feColorMatrix type="matrix" values="0 0 0 0 0 0 0 0 0 0 0 0 0 0 0 0 0 0 1 0"/>
<feBlend mode="normal" in2="effect1_dropShadow_7_317" result="effect2_dropShadow_7_317"/>
<feBlend mode="normal" in="SourceGraphic" in2="effect2_dropShadow_7_317" result="shape"/>
<feColorMatrix in="SourceAlpha" type="matrix" values="0 0 0 0 0 0 0 0 0 0 0 0 0 0 0 0 0 0 127 0" result="hardAlpha"/>
<feOffset dy="0.19984"/>
<feGaussianBlur stdDeviation="0.203659"/>
<feComposite in2="hardAlpha" operator="arithmetic" k2="-1" k3="1"/>
<feColorMatrix type="matrix" values="0 0 0 0 0 0 0 0 0 0 0 0 0 0 0 0 0 0 1 0"/>
<feBlend mode="normal" in2="shape" result="effect3_innerShadow_7_317"/>
<feColorMatrix in="SourceAlpha" type="matrix" values="0 0 0 0 0 0 0 0 0 0 0 0 0 0 0 0 0 0 127 0" result="hardAlpha"/>
<feOffset dy="-0.0217767"/>
<feGaussianBlur stdDeviation="0.0217767"/>
<feComposite in2="hardAlpha" operator="arithmetic" k2="-1" k3="1"/>
<feColorMatrix type="matrix" values="0 0 0 0 0 0 0 0 0 0 0 0 0 0 0 0 0 0 1 0"/>
<feBlend mode="normal" in2="effect3_innerShadow_7_317" result="effect4_innerShadow_7_317"/>
</filter>
<filter id="filter21_d_7_317" x="18.0994" y="34.5366" width="1.94998" height="0.788245" filterUnits="userSpaceOnUse" color-interpolation-filters="sRGB">
<feFlood flood-opacity="0" result="BackgroundImageFix"/>
<feColorMatrix in="SourceAlpha" type="matrix" values="0 0 0 0 0 0 0 0 0 0 0 0 0 0 0 0 0 0 127 0" result="hardAlpha"/>
<feOffset dx="0.0231055" dy="0.0287013"/>
<feGaussianBlur stdDeviation="0.0143507"/>
<feColorMatrix type="matrix" values="0 0 0 0 1 0 0 0 0 1 0 0 0 0 1 0 0 0 0.24 0"/>
<feBlend mode="normal" in2="BackgroundImageFix" result="effect1_dropShadow_7_317"/>
<feBlend mode="normal" in="SourceGraphic" in2="effect1_dropShadow_7_317" result="shape"/>
</filter>
<filter id="filter22_d_7_317" x="14.6284" y="32.7875" width="0.607452" height="0.743079" filterUnits="userSpaceOnUse" color-interpolation-filters="sRGB">
<feFlood flood-opacity="0" result="BackgroundImageFix"/>
<feColorMatrix in="SourceAlpha" type="matrix" values="0 0 0 0 0 0 0 0 0 0 0 0 0 0 0 0 0 0 127 0" result="hardAlpha"/>
<feOffset dx="0.0231055" dy="0.0287013"/>
<feGaussianBlur stdDeviation="0.0143507"/>
<feColorMatrix type="matrix" values="0 0 0 0 1 0 0 0 0 1 0 0 0 0 1 0 0 0 0.24 0"/>
<feBlend mode="normal" in2="BackgroundImageFix" result="effect1_dropShadow_7_317"/>
<feBlend mode="normal" in="SourceGraphic" in2="effect1_dropShadow_7_317" result="shape"/>
</filter>
<linearGradient id="paint0_linear_7_317" x1="24.1745" y1="38.0077" x2="24.799" y2="36.7592" gradientUnits="userSpaceOnUse">
<stop stop-color="#3F3F3F"/>
<stop offset="1" stop-color="#5C5C5C"/>
</linearGradient>
<linearGradient id="paint1_linear_7_317" x1="24.1041" y1="37.922" x2="24.7198" y2="36.7289" gradientUnits="userSpaceOnUse">
<stop stop-color="#AAAAAA"/>
<stop offset="1" stop-color="#C2C2C2"/>
</linearGradient>
<linearGradient id="paint2_linear_7_317" x1="31.4276" y1="33.598" x2="31.749" y2="32.4907" gradientUnits="userSpaceOnUse">
<stop stop-color="#3F3F3F"/>
<stop offset="1" stop-color="#5C5C5C"/>
</linearGradient>
<linearGradient id="paint3_linear_7_317" x1="31.2479" y1="33.6759" x2="31.6193" y2="32.6254" gradientUnits="userSpaceOnUse">
<stop stop-color="#AAAAAA"/>
<stop offset="1" stop-color="#C2C2C2"/>
</linearGradient>
<linearGradient id="paint4_linear_7_317" x1="22.1383" y1="37.0089" x2="13.9104" y2="27.4864" gradientUnits="userSpaceOnUse">
<stop stop-color="#D8D8D8"/>
<stop offset="1" stop-color="white"/>
</linearGradient>
<linearGradient id="paint5_linear_7_317" x1="21.0816" y1="24.8769" x2="25.738" y2="29.0634" gradientUnits="userSpaceOnUse">
<stop stop-color="#E8EAE9"/>
<stop offset="0.498386" stop-color="#707072"/>
<stop offset="1" stop-color="#2F3032"/>
</linearGradient>
<linearGradient id="paint6_linear_7_317" x1="28.9126" y1="39.0994" x2="24.3668" y2="31.2708" gradientUnits="userSpaceOnUse">
<stop stop-color="#E8EAE9"/>
<stop offset="0.498386" stop-color="#707072"/>
<stop offset="1" stop-color="#2F3032"/>
</linearGradient>
<linearGradient id="paint7_linear_7_317" x1="30.5572" y1="30.8474" x2="28.0449" y2="27.3641" gradientUnits="userSpaceOnUse">
<stop stop-color="#E8EAE9"/>
<stop offset="0.498386" stop-color="#707072"/>
<stop offset="1" stop-color="#2F3032"/>
</linearGradient>
<linearGradient id="paint8_linear_7_317" x1="21.2277" y1="34.4848" x2="20.6214" y2="32.8494" gradientUnits="userSpaceOnUse">
<stop stop-color="#ECEAEA"/>
<stop offset="1" stop-color="white" stop-opacity="0"/>
</linearGradient>
<linearGradient id="paint9_linear_7_317" x1="14.7408" y1="31.7086" x2="16.889" y2="32.3976" gradientUnits="userSpaceOnUse">
<stop stop-color="#ECEAEA"/>
<stop offset="1" stop-color="white" stop-opacity="0"/>
</linearGradient>
<linearGradient id="paint10_linear_7_317" x1="26.2985" y1="34.639" x2="25.6232" y2="33.2924" gradientUnits="userSpaceOnUse">
<stop stop-color="#040404"/>
<stop offset="1" stop-color="#3C3C3C" stop-opacity="0"/>
</linearGradient>
<linearGradient id="paint11_linear_7_317" x1="17.1597" y1="34.7895" x2="17.5215" y2="34.0399" gradientUnits="userSpaceOnUse">
<stop stop-color="#4B4B4B"/>
<stop offset="0.899322" stop-opacity="0"/>
</linearGradient>
</defs>
</svg>
