<svg width="141" height="48" viewBox="0 0 141 48" fill="none" xmlns="http://www.w3.org/2000/svg">
<path d="M132.541 24.3952C132.066 25.2895 131.542 26.2551 130.966 27.2903C130.39 28.3586 129.837 29.3799 129.309 30.3523C128.78 31.3245 128.344 32.1251 128 32.754C127.907 32.9256 127.816 33.0976 127.723 33.2692C127.629 33.461 127.526 33.642 127.417 33.8114C127.324 33.9831 127.231 34.165 127.136 34.3567C127.019 34.5864 126.903 34.8066 126.788 35.0162C126.671 35.2457 126.554 35.4652 126.44 35.6747C126.323 35.9043 126.198 36.123 126.066 36.3303C125.949 36.56 125.833 36.7802 125.718 36.9898C125.516 37.3309 125.286 37.5562 125.026 37.6656C124.781 37.7972 124.54 37.8273 124.304 37.7562C124.085 37.6872 123.893 37.5404 123.729 37.3156C123.579 37.113 123.498 36.8576 123.485 36.5502C123.472 36.2426 123.557 35.9164 123.741 35.573C123.856 35.3634 123.972 35.1432 124.089 34.9135C124.224 34.6862 124.359 34.4583 124.493 34.231C124.628 34.0036 124.754 33.7749 124.871 33.5453C125.006 33.318 125.13 33.0993 125.244 32.8898C125.339 32.6981 125.423 32.5254 125.495 32.3716C125.585 32.22 125.667 32.0664 125.739 31.9126C125.829 31.761 125.92 31.5889 126.015 31.3973C126.247 30.958 126.545 30.4152 126.909 29.7685C127.276 29.1017 127.667 28.3763 128.084 27.5935C128.517 26.8131 128.952 26.0224 129.388 25.2219C129.558 24.9107 129.721 24.6054 129.881 24.3082C130.229 24.5388 130.639 24.6876 131.085 24.7224C131.611 24.7634 132.113 24.6392 132.541 24.3952ZM133.588 18.1422C133.914 18.0617 134.207 18.1091 134.465 18.2851C134.741 18.4633 134.917 18.7309 134.994 19.0874C135.089 19.4462 135.01 19.844 134.761 20.2809C134.577 20.6243 134.383 20.9772 134.178 21.3384C134.064 21.5613 133.944 21.783 133.823 22.0052C133.757 21.0437 133.152 20.2124 132.288 19.8403C132.46 19.5185 132.624 19.2142 132.777 18.9253C133.009 18.4861 133.279 18.2251 133.588 18.1422Z" fill="#EBEBEB"/>
<path d="M127.907 10.4309C132.011 10.3894 135.383 13.6949 135.425 17.7991C135.437 18.9399 135.196 20.0382 134.71 21.0627C134.705 21.0751 134.698 21.0877 134.692 21.0999C134.004 22.5072 132.037 25.912 129.954 29.5149L128.934 31.2815C128.767 31.5718 128.458 31.7527 128.122 31.7561C127.787 31.7594 127.475 31.5849 127.302 31.2981L126.246 29.551C124.076 25.9664 122.026 22.5809 121.324 21.2063C120.813 20.1852 120.55 19.092 120.538 17.9504C120.497 13.846 123.802 10.4726 127.907 10.4309ZM127.688 14.1858C125.68 14.1859 124.047 15.8198 124.046 17.8274C124.046 19.8352 125.68 21.4689 127.688 21.469C129.696 21.469 131.329 19.8353 131.329 17.8274C131.329 15.8197 129.696 14.1858 127.688 14.1858Z" fill="white"/>
<g filter="url(#filter0_f_2050_7477)">
<path d="M38.5131 41.4238C36.3426 40.8279 32.3759 39.1498 30.9332 37.8699C29.2733 36.534 32.6049 34.9077 32.999 34.6654C33.3931 34.423 52.8006 24.1729 56.1905 22.5768C59.5804 20.9806 70.5168 23.8889 73.1825 25.282C75.3553 26.4175 73.8625 27.2976 73.5827 27.537C73.3029 27.7764 57.1619 37.3205 51.3475 40.2559C46.9443 42.4789 42.7737 42.5934 38.5131 41.4238Z" fill="white" fill-opacity="0.2"/>
</g>
<path fill-rule="evenodd" clip-rule="evenodd" d="M53.8035 30.8027L51.6035 29.8492L51.603 29.8504C51.5889 29.844 51.5747 29.8378 51.5603 29.8318C50.2503 29.2832 48.4361 30.6474 47.508 32.8789C46.5799 35.1105 46.8895 37.3642 48.1994 37.9128C48.2174 37.9203 48.2353 37.9274 48.2534 37.9342L50.3753 38.8553L51.4743 36.2738C51.7699 35.8606 52.035 35.3868 52.2517 34.8656C52.4516 34.3851 52.5941 33.9034 52.6816 33.4381L53.8035 30.8027Z" fill="black"/>
<path d="M50.3825 38.858C51.6924 39.4066 53.5061 38.0438 54.4335 35.814C55.3609 33.5843 55.0507 31.332 53.7408 30.7834C52.4308 30.2348 50.6171 31.5976 49.6897 33.8273C48.7624 36.0571 49.0725 38.3094 50.3825 38.858Z" fill="black"/>
<g filter="url(#filter1_d_2050_7477)">
<path d="M50.8761 37.8494C51.8586 38.2609 53.219 37.2387 53.9145 35.5663C54.6101 33.8939 54.3775 32.2046 53.395 31.7932C52.4125 31.3817 51.0521 32.4039 50.3565 34.0763C49.661 35.7486 49.8936 37.4379 50.8761 37.8494Z" fill="url(#paint0_linear_2050_7477)"/>
</g>
<g filter="url(#filter2_di_2050_7477)">
<path fill-rule="evenodd" clip-rule="evenodd" d="M51.9983 32.4881C51.7243 32.6594 51.4563 32.91 51.2165 33.2231L51.8038 34.1863C51.8764 34.0966 51.955 34.0215 52.0357 33.9638L51.9983 32.4881ZM52.0822 35.7991C51.9624 35.8499 51.8434 35.8591 51.7375 35.8177L50.9516 37.2671C50.9951 37.2942 51.0407 37.3178 51.0884 37.3378C51.4019 37.4691 51.7618 37.4247 52.1188 37.2415L52.0822 35.7991ZM52.23 37.18L52.1935 35.7402C52.2886 35.6799 52.3817 35.5949 52.4667 35.4901L53.0423 36.4341C52.7932 36.7562 52.5141 37.0111 52.23 37.18ZM52.1467 33.8962L52.1094 32.4232C52.4801 32.2216 52.8558 32.1684 53.1816 32.3048C53.2726 32.3429 53.3559 32.3942 53.4312 32.4572L52.638 33.92C52.609 33.8958 52.5768 33.876 52.5417 33.8613C52.4215 33.8109 52.2837 33.8272 52.1467 33.8962ZM53.6134 35.4404C53.475 35.7732 53.305 36.075 53.1151 36.3369L52.5394 35.3927C52.6036 35.2991 52.6613 35.1934 52.7092 35.0781C52.7151 35.0641 52.7207 35.0501 52.7262 35.0361L53.6815 35.2671C53.6601 35.3249 53.6374 35.3827 53.6134 35.4404ZM51.7312 34.2838L51.1441 33.3208C50.9586 33.5792 50.7924 33.8758 50.6566 34.2022C50.6291 34.2684 50.6033 34.3346 50.5792 34.4008L51.5468 34.6348C51.5517 34.6224 51.5567 34.61 51.5618 34.5976C51.6097 34.4827 51.6672 34.3772 51.7312 34.2838ZM53.7196 35.1602C53.8786 34.696 53.9523 34.2382 53.9462 33.8274L52.838 34.5075C52.8342 34.64 52.8098 34.7833 52.7637 34.929L53.7196 35.1602ZM51.5089 34.7417C51.4536 34.9149 51.429 35.0848 51.433 35.2373L50.327 35.916C50.3065 35.4873 50.3759 35.0017 50.5418 34.5079L51.5089 34.7417ZM50.3358 36.0429L51.4434 35.3633C51.468 35.5362 51.5347 35.6774 51.6398 35.7612L50.8589 37.2017C50.5608 36.9649 50.3825 36.5495 50.3358 36.0429ZM53.9416 33.6979L52.8349 34.377C52.8233 34.2309 52.7837 34.1035 52.7182 34.0087L53.5163 32.5368C53.7685 32.7997 53.9136 33.2109 53.9416 33.6979Z" fill="#4C4C4C"/>
</g>
<path fill-rule="evenodd" clip-rule="evenodd" d="M53.8013 30.7572L51.6013 29.8036L51.6011 29.8041C51.5875 29.798 51.5738 29.7921 51.56 29.7863C50.2501 29.2377 48.4358 30.6019 47.5077 32.8334C46.5797 35.0649 46.8892 37.3186 48.1992 37.8673C48.2124 37.8728 48.2257 37.8781 48.239 37.8833L50.373 38.8097L51.4691 36.2352C51.7668 35.8203 52.0335 35.3442 52.2515 34.8201C52.4525 34.3367 52.5955 33.8522 52.6828 33.3843L53.8013 30.7572Z" fill="black"/>
<path d="M54.4587 35.8133C53.5313 38.0431 51.7176 39.4059 50.4076 38.8573C49.0977 38.3087 48.7875 36.0564 49.7149 33.8267C50.6423 31.5969 52.5086 30.114 53.8185 30.6626C55.1285 31.2112 55.386 33.5836 54.4587 35.8133Z" fill="#2D2C2C"/>
<g filter="url(#filter3_d_2050_7477)">
<path d="M50.9398 37.7571C51.8569 38.153 53.1254 37.1596 53.7731 35.5383C54.4208 33.917 54.2025 32.2817 53.2855 31.8858C52.3684 31.4899 51.0999 32.4833 50.4522 34.1046C49.8045 35.726 50.0228 37.3612 50.9398 37.7571Z" fill="url(#paint1_linear_2050_7477)"/>
</g>
<g filter="url(#filter4_di_2050_7477)">
<path fill-rule="evenodd" clip-rule="evenodd" d="M53.2792 35.5001C52.8242 36.5208 52.0369 37.1632 51.4077 37.043L51.8659 35.9197C52.1331 35.9055 52.4364 35.6482 52.6391 35.2546L53.2792 35.5001ZM53.4044 35.1851C53.7667 34.1528 53.6581 33.1443 53.1576 32.7518L52.6997 33.8747C52.8744 34.0923 52.9053 34.5083 52.7682 34.9411L53.4044 35.1851ZM51.5461 34.4724C51.7557 34.0109 52.1035 33.71 52.3984 33.7196L52.8532 32.6041C52.2007 32.4488 51.3651 33.1371 50.909 34.228L51.5461 34.4724ZM51.4322 34.7917L50.7911 34.5458C50.4601 35.5654 50.5877 36.5445 51.0976 36.9096L51.5527 35.7936C51.3697 35.5998 51.3221 35.2099 51.4322 34.7917Z" fill="#A9A8A8"/>
</g>
<path fill-rule="evenodd" clip-rule="evenodd" d="M69.9331 22.1677L68.0045 21.7206L68.0042 21.7219C67.992 21.7188 67.9797 21.7159 67.9673 21.7132C66.8218 21.4627 65.5507 22.8411 65.1281 24.792C64.7056 26.743 65.2917 28.5277 66.4373 28.7782C66.454 28.7819 66.4707 28.7852 66.4875 28.7882L68.3441 29.2195L68.853 26.9613C69.0323 26.581 69.1776 26.1559 69.2765 25.6994C69.3676 25.2784 69.4118 24.8652 69.4136 24.4734L69.9331 22.1677Z" fill="black"/>
<path d="M68.3524 29.2209C69.4979 29.4715 70.7688 28.0943 71.191 26.1449C71.6132 24.1955 71.0268 22.412 69.8813 22.1615C68.7358 21.9109 67.4649 23.2881 67.0427 25.2375C66.6205 27.1869 67.2069 28.9704 68.3524 29.2209Z" fill="black"/>
<g filter="url(#filter5_d_2050_7477)">
<path d="M68.6026 28.328C69.4618 28.5159 70.415 27.483 70.7316 26.0208C71.0483 24.5587 70.6085 23.221 69.7493 23.0331C68.8901 22.8451 67.9369 23.8781 67.6202 25.3402C67.3036 26.8024 67.7434 28.14 68.6026 28.328Z" fill="url(#paint2_linear_2050_7477)"/>
</g>
<g filter="url(#filter6_di_2050_7477)">
<path fill-rule="evenodd" clip-rule="evenodd" d="M68.7201 23.805C68.5228 23.985 68.342 24.2287 68.1935 24.5191L68.8143 25.2148C68.86 25.1309 68.9128 25.058 68.9698 24.999L68.7201 23.805ZM69.2802 26.4831C69.1902 26.5423 69.0947 26.5675 69.0023 26.5494L68.5792 27.8438C68.6184 27.8592 68.6588 27.8715 68.7005 27.8806C68.9749 27.9407 69.2609 27.8509 69.5239 27.6485L69.2802 26.4831ZM69.6051 27.5819L69.3618 26.4187C69.43 26.3557 69.493 26.2729 69.5465 26.1753L70.1534 26.8556C69.9991 27.154 69.8105 27.4024 69.6051 27.5819ZM69.0499 24.9276L68.8007 23.7358C69.0717 23.5172 69.3688 23.4182 69.6534 23.4804C69.7331 23.4979 69.8085 23.5272 69.879 23.5672L69.4522 24.8734C69.4251 24.8582 69.3962 24.847 69.3657 24.8403C69.2606 24.8173 69.151 24.851 69.0499 24.9276ZM70.4698 25.9634C70.4068 26.2543 70.3135 26.5248 70.1981 26.7658L69.591 26.0854C69.6294 25.9996 69.6607 25.9049 69.6826 25.804C69.6852 25.7916 69.6877 25.7793 69.6901 25.7671L70.4994 25.8125C70.4906 25.8625 70.4807 25.9128 70.4698 25.9634ZM68.7698 25.3048L68.1492 24.6092C68.0369 24.8467 67.9459 25.1124 67.8842 25.3978C67.8716 25.4557 67.8605 25.5133 67.8508 25.5707L68.6725 25.6167C68.6745 25.606 68.6767 25.5952 68.679 25.5844C68.7008 25.4842 68.7318 25.3901 68.7698 25.3048ZM70.5144 25.7199C70.5746 25.3194 70.5665 24.937 70.5007 24.6044L69.7024 25.3211C69.7189 25.4293 69.7205 25.5493 69.7047 25.6746L70.5144 25.7199ZM68.6575 25.7093C68.6383 25.8582 68.6435 25.9999 68.6694 26.1233L67.8711 26.8399C67.7906 26.4946 67.7748 26.0895 67.8363 25.6633L68.6575 25.7093ZM67.8971 26.9417L68.6965 26.2241C68.7421 26.3607 68.8171 26.4654 68.9147 26.5178L68.4941 27.8045C68.2169 27.6567 68.0104 27.346 67.8971 26.9417ZM70.4778 24.4998L69.6805 25.2156C69.6492 25.0983 69.598 25.0006 69.5305 24.9333L69.96 23.6193C70.2039 23.7954 70.3829 24.1081 70.4778 24.4998Z" fill="#4C4C4C"/>
</g>
<path fill-rule="evenodd" clip-rule="evenodd" d="M69.9409 22.218L68.0123 21.771L68.0122 21.7715C68.0001 21.7684 67.9878 21.7656 67.9756 21.7629C66.8301 21.5123 65.5589 22.8907 65.1364 24.8416C64.7139 26.7926 65.3 28.5773 66.4455 28.8279C66.4565 28.8303 66.4675 28.8325 66.4785 28.8347L68.3519 29.2699L68.8606 27.0122C69.0402 26.6316 69.1857 26.2061 69.2847 25.7491C69.376 25.3276 69.4202 24.9138 69.4219 24.5216L69.9409 22.218Z" fill="black"/>
<path d="M68.3506 29.2678C69.5089 29.5211 70.7939 28.1286 71.2208 26.1576C71.6477 24.1865 71.0548 22.3832 69.8965 22.1299C68.7383 21.8765 67.4533 23.269 67.0264 25.2401C66.5995 27.2111 67.1924 29.0144 68.3506 29.2678Z" fill="#2C2C2C"/>
<g filter="url(#filter7_d_2050_7477)">
<g filter="url(#filter8_d_2050_7477)">
<path d="M68.5249 28.4489C69.32 28.6695 70.2922 27.7241 70.6964 26.3373C71.1006 24.9505 70.7837 23.6475 69.9887 23.427C69.1936 23.2064 68.2214 24.1518 67.8172 25.5386C67.413 26.9254 67.7298 28.2284 68.5249 28.4489Z" fill="url(#paint3_linear_2050_7477)"/>
</g>
<g filter="url(#filter9_di_2050_7477)">
<path fill-rule="evenodd" clip-rule="evenodd" d="M70.337 26.324C70.0796 27.2079 69.5082 27.8362 68.9773 27.8335L69.2249 26.8589C69.4407 26.8063 69.657 26.559 69.7781 26.2185L70.337 26.324ZM70.4061 26.0431C70.5845 25.1591 70.3786 24.3625 69.9218 24.1163L69.6741 25.0913C69.8408 25.2432 69.9132 25.5721 69.851 25.9383L70.4061 26.0431ZM68.7871 25.7375C68.9069 25.3335 69.1601 25.0397 69.4052 25.006L69.6508 24.0397C69.0938 24.0086 68.4835 24.6857 68.234 25.6331L68.7871 25.7375ZM68.7292 26.0205L68.1721 25.9154C68.0203 26.7836 68.2401 27.5515 68.7026 27.7711L68.9481 26.8051C68.7746 26.677 68.6891 26.372 68.7292 26.0205Z" fill="#A9A8A8"/>
</g>
</g>
<g filter="url(#filter10_ii_2050_7477)">
<path fill-rule="evenodd" clip-rule="evenodd" d="M41.3043 21.8125C41.2842 21.8301 41.2629 21.8461 41.2402 21.86C41.1608 21.9084 41.0894 21.9427 41.0256 21.9616C40.2238 22.1982 33.5551 26.0794 32.1186 27.6075C30.7206 29.0946 30.8219 29.9597 30.869 30.3613C30.8759 30.4193 30.8818 30.4676 30.8818 30.5068C30.8808 30.702 30.8921 31.0945 30.9069 31.5939C30.9152 31.888 30.925 32.2192 30.9339 32.5689L30.9639 33.7573C30.9693 33.846 30.9712 33.9365 30.9732 34.0291C30.9811 34.4218 30.9904 34.8488 31.243 35.3106C31.554 35.8797 33.0405 37.9579 40.0485 39.966C42.4248 40.6469 45.1426 39.7544 46.8704 38.9863C47.5927 38.696 48.1382 38.4195 48.4072 38.277C48.4486 38.2551 48.4802 38.2216 48.5001 38.1816C48.5055 38.1707 48.5146 38.1607 48.5252 38.1549C48.5412 38.1461 48.5503 38.1306 48.5513 38.1124C48.5828 37.5183 48.7022 36.6808 48.887 35.8414C49.0988 34.9359 49.386 34.0366 49.7112 33.4467C50.475 32.0609 52.1317 30.3336 53.4799 30.7611C55.0098 31.2463 54.9486 33.4305 54.9327 33.9521C54.928 34.1055 54.9129 34.2081 54.8979 34.3094C54.8809 34.4246 54.8641 34.5382 54.8632 34.7229C54.8632 34.7319 54.8637 34.7407 54.8647 34.7493C54.8656 34.7576 54.8665 34.766 54.8665 34.7743C54.8667 34.8051 54.8676 34.839 54.8692 34.8764C54.8716 34.9337 54.9336 34.9675 54.9839 34.9399C55.0024 34.9297 55.0243 34.9281 55.0452 34.9312C55.0906 34.9378 55.1393 34.9306 55.1847 34.9058L66.7724 28.6014C66.8339 28.568 66.877 28.5079 66.8845 28.4384C66.9124 28.1798 66.9041 27.88 66.8948 27.5456V27.5455C66.869 26.6219 66.8358 25.4349 67.5401 24.1265C68.1838 22.9306 69.1453 22.1254 70.0434 22.3824C70.9414 22.6394 71.208 23.5928 71.2701 24.126C71.3312 24.6497 71.315 25.132 71.3057 25.4118V25.4118L71.3057 25.4119C71.3019 25.5245 71.2993 25.6042 71.3031 25.6406C71.3168 25.7675 72.5715 24.6312 72.6433 24.2085C72.8617 22.922 72.8837 21.722 72.719 20.426C72.692 20.214 72.6001 19.6792 72.535 19.4695C72.5251 19.4377 72.5195 19.4048 72.5207 19.3714C72.5362 18.9248 72.4418 18.2717 72.3127 17.9972C72.3012 17.9727 72.2899 17.9468 72.278 17.9196C72.1394 17.6024 71.9231 17.107 70.3355 16.4448C68.0812 15.5045 61.9554 13.4393 61.7192 13.3934C61.1612 13.2849 60.4518 13.3555 59.8776 13.4128C59.5406 13.4463 59.2502 13.4753 59.0641 13.4607C56.3769 13.2497 53.2793 13.6986 49.2322 15.8705C48.6891 16.1174 48.153 16.397 47.6351 16.7138C46.3413 17.5052 45.2556 18.3382 44.3545 19.1021C43.3028 19.9491 42.4944 20.7069 41.9139 21.2511C41.6712 21.4787 41.4683 21.6688 41.3043 21.8125Z" fill="url(#paint4_linear_2050_7477)"/>
</g>
<g filter="url(#filter11_ddi_2050_7477)">
<path d="M52.154 26.1911C53.629 25.5361 54.4154 23.4888 56.617 21.0584C56.6709 20.999 56.6486 20.903 56.5735 20.8751L47.2424 17.3995C47.2254 17.3932 47.2076 17.391 47.1899 17.3954C47.0264 17.4363 46.0776 17.7607 43.4995 20.1464C42.2036 21.3457 41.9459 21.6561 41.2728 22.1351C41.1664 22.2108 41.1893 22.3711 41.5955 22.689C42.8905 23.7023 49.9728 27.1595 52.154 26.1911Z" fill="url(#paint5_linear_2050_7477)"/>
</g>
<g filter="url(#filter12_di_2050_7477)">
<path d="M62.4683 18.0727C64.4122 17.4062 64.9163 17.39 66.2671 17.2794C67.1966 17.2032 68.6779 17.3034 68.8498 17.7184C69.0216 18.1335 67.2658 19.4951 66.5356 19.9237C66.1788 20.1332 53.8506 26.7083 54.2288 25.9585C54.6949 25.0349 56.8804 22.3747 57.6224 21.2923C58.8596 19.4876 60.5245 18.7391 62.4683 18.0727Z" fill="url(#paint6_linear_2050_7477)"/>
</g>
<g filter="url(#filter13_di_2050_7477)">
<path d="M66.8779 16.726L58.5723 13.5862C58.5723 13.5862 58.7582 13.6464 59.7666 13.606C60.1184 13.5919 68.7393 16.8828 68.803 16.936L66.8779 16.726Z" fill="url(#paint7_linear_2050_7477)"/>
</g>
<g filter="url(#filter14_f_2050_7477)">
<path d="M48.491 30.8018C51.6108 29.2541 53.3381 27.3667 55.1973 25.6344C49.576 27.4576 37.8143 31.4337 38.0061 31.6681C38.2459 31.9612 39.1063 32.2943 41.9403 32.4133C44.7305 32.5304 48.1337 30.9791 48.491 30.8018Z" fill="url(#paint8_linear_2050_7477)" fill-opacity="0.21"/>
</g>
<g filter="url(#filter15_f_2050_7477)">
<path d="M36.1225 24.106C36.2981 23.954 38.4929 21.5606 40.1511 20.3547C38.8252 23.1127 35.7948 29.1111 35.4982 29.089C35.1276 29.0614 33.4278 28.7875 32.9001 27.649C32.3807 26.5281 35.9029 24.2961 36.1225 24.106Z" fill="url(#paint9_linear_2050_7477)" fill-opacity="0.13"/>
</g>
<g filter="url(#filter16_di_2050_7477)">
<path d="M59.6131 26.1188C59.612 26.0755 59.6357 26.0354 59.6741 26.0155L60.7375 25.4645C60.8114 25.4262 60.8997 25.4785 60.9018 25.5617L60.9062 25.7357C60.9073 25.7791 60.8836 25.8192 60.845 25.8391L59.7816 26.388C59.7077 26.4261 59.6196 26.3739 59.6175 26.2907L59.6131 26.1188Z" fill="#323232"/>
</g>
<g filter="url(#filter17_di_2050_7477)">
<path d="M65.586 23.2987C65.5849 23.2554 65.6086 23.2153 65.647 23.1954L66.7104 22.6444C66.7843 22.6061 66.8726 22.6584 66.8747 22.7416L66.8791 22.9156C66.8802 22.9589 66.8564 22.9991 66.8179 23.019L65.7545 23.5679C65.6806 23.606 65.5925 23.5538 65.5904 23.4706L65.586 23.2987Z" fill="#323232"/>
</g>
<g filter="url(#filter18_f_2050_7477)">
<path d="M56.0904 33.7713L66.1945 28.5027C66.2501 28.4737 66.2911 28.4231 66.3076 28.3626C66.5593 27.4385 67.0163 25.6718 67.0173 25.3014C67.0187 24.8221 54.9744 30.9317 55.4286 32.0046C55.6632 32.5587 55.7162 33.1027 55.7024 33.5022C55.6955 33.698 55.9168 33.8619 56.0904 33.7713Z" fill="url(#paint10_linear_2050_7477)" fill-opacity="0.12"/>
</g>
<path d="M45.9703 24.9667L53.033 19.5414C53.8628 19.7437 55.7595 20.5357 56.1203 20.6609C56.5877 20.8231 56.6671 20.9181 56.6671 20.9181C56.6707 21.0579 56.6009 21.1208 56.3817 21.345C56.0674 21.6664 55.9346 21.814 55.1622 22.8536C54.0498 24.3507 53.2098 25.7388 52.3794 26.0878C51.7187 26.3655 50.6838 26.6199 49.1904 26.1687C47.8555 25.7654 47.0281 25.2924 45.9703 24.9667Z" fill="#C4C4C4" fill-opacity="0.2"/>
<g opacity="0.17" filter="url(#filter19_f_2050_7477)">
<path d="M33.316 29.4442C35.3158 30.946 39.7337 33.0531 41.6897 33.342" stroke="url(#paint11_linear_2050_7477)" stroke-width="3.58711" stroke-linecap="round" stroke-linejoin="round"/>
</g>
<g filter="url(#filter20_ddii_2050_7477)">
<path d="M31.8335 30.0481C31.4423 29.547 31.5367 29.1358 31.576 28.4929C31.5775 28.4755 31.5809 28.4568 31.5858 28.4399C31.7367 27.9295 31.0482 28.9992 30.9917 29.7288C30.9731 29.9703 30.9917 30.0919 31.0197 30.3137C31.033 30.4152 31.2581 31.0309 31.2301 31.1657C31.2025 31.3006 31.2944 32.223 31.293 32.3627C31.292 32.5025 31.9013 33.5269 33.4586 34.4903C34.7523 35.2906 36.5932 35.7907 36.7812 35.8129C36.9692 35.8351 37.1368 35.2019 37.2719 35.1638C37.6254 35.0639 38.6864 35.4234 39.0812 35.5122C39.542 35.6156 40.6171 35.854 41.781 35.6744C43.2205 35.4522 43.4373 35.2824 44.7466 34.5256C45.5764 34.0459 46.1624 33.1596 46.4018 32.6238C46.4666 32.4788 46.3346 32.3547 46.1852 32.4084C45.2717 32.7367 43.3892 33.4655 41.2499 33.7399C38.0709 34.1476 35.5151 32.6966 35.1489 32.488C33.6096 31.611 32.8045 31.2927 31.8335 30.0481Z" fill="#272727"/>
</g>
<mask id="mask0_2050_7477" style="mask-type:alpha" maskUnits="userSpaceOnUse" x="30" y="28" width="17" height="8">
<path d="M31.8332 30.042C31.5231 29.6446 31.4941 29.1735 31.5575 28.7574C31.5924 28.5309 31.3683 28.4119 31.2563 28.6118C30.9791 29.1073 30.8666 29.5252 30.8371 29.7549C30.8184 29.9964 30.8283 30.1493 30.8563 30.3711C30.8691 30.4726 31.2568 31.0244 31.2293 31.1592C31.2012 31.2941 31.2926 32.2165 31.2912 32.3563C31.2902 32.4961 31.899 33.5208 33.4554 34.4852C34.7486 35.2863 36.5892 35.7876 36.7772 35.8099C36.9651 35.8322 37.1331 35.1992 37.2683 35.1611C37.6218 35.0615 38.6826 35.4217 39.0774 35.5107C39.5381 35.6144 40.6131 35.8535 41.777 35.6746C43.2167 35.4534 43.4336 35.2837 44.7434 34.5277C45.5735 34.0486 46.16 33.1626 46.3998 32.627C46.4647 32.4821 46.3328 32.3579 46.1833 32.4115C45.2696 32.7392 43.3867 33.4668 41.2471 33.7398C38.0679 34.1455 35.513 32.6928 35.147 32.484C33.6082 31.606 32.8037 31.2872 31.8332 30.042Z" fill="#999999"/>
</mask>
<g mask="url(#mask0_2050_7477)">
<g filter="url(#filter21_d_2050_7477)">
<path d="M44.1416 32.8846L39.8545 33.0581C39.8542 33.0589 39.854 33.0598 39.8537 33.0607C39.8427 33.0954 39.8288 33.1457 39.8179 33.2069C39.7959 33.3299 39.7865 33.4929 39.8326 33.6601C39.8782 33.8256 39.979 33.9986 40.1839 34.1441C40.3903 34.2906 40.7065 34.4121 41.1868 34.4642C41.4722 34.4952 41.8655 34.4838 42.2677 34.3969C42.6701 34.3098 43.0755 34.1485 43.3902 33.8842C43.5604 33.7413 43.7666 33.4624 43.934 33.2112C44.0167 33.0872 44.0882 32.9724 44.1391 32.8886C44.14 32.8873 44.1408 32.8859 44.1416 32.8846Z" stroke="white" stroke-opacity="0.9" stroke-width="0.161739"/>
</g>
<g filter="url(#filter22_d_2050_7477)">
<path d="M31.5737 28.7118C31.5732 28.7126 31.5727 28.7133 31.5722 28.7141C31.5348 28.7848 31.4877 28.8865 31.4518 29.0102C31.38 29.2572 31.353 29.5878 31.5245 29.9342C31.5737 30.0328 31.641 30.0975 31.7088 30.123C31.7717 30.1466 31.8469 30.1411 31.9299 30.0746C31.9874 30.0289 32.068 30.0092 32.1412 30C32.2179 29.9904 32.3019 29.9904 32.3781 29.9943C32.4105 29.9959 32.4419 29.9983 32.4719 30.001L31.5737 28.7118Z" stroke="white" stroke-opacity="0.9" stroke-width="0.161739"/>
</g>
</g>
<path d="M6.91653 13.0782C7.0843 13.5575 7.27603 14.1806 7.49173 14.9475C7.73139 15.6905 7.98304 16.4694 8.24667 17.2843C8.5103 18.0991 8.73798 18.8541 8.92972 19.5491C9.24128 20.5557 9.55284 21.6222 9.86441 22.7486C10.1999 23.8751 10.4995 24.8936 10.7632 25.8044C11.0508 26.6911 11.2545 27.3262 11.3743 27.7097C11.4462 27.9494 11.5061 28.177 11.554 28.3927C11.6259 28.6084 11.6859 28.8122 11.7338 29.0039C11.8057 29.1717 11.8656 29.3394 11.9135 29.5072C11.9615 29.651 12.0094 29.7948 12.0573 29.9386C12.1053 30.0584 12.1412 30.1663 12.1652 30.2621C12.1892 30.358 12.2131 30.4419 12.2371 30.5138C12.2611 30.5857 12.285 30.6336 12.309 30.6576C12.333 30.6815 12.3449 30.6935 12.3449 30.6935C12.3689 30.6696 12.3929 30.6336 12.4168 30.5857C12.4408 30.5138 12.4648 30.4299 12.4887 30.334C12.5127 30.2382 12.5367 30.1183 12.5606 29.9745C12.6086 29.8307 12.6565 29.675 12.7044 29.5072C12.7524 29.3155 12.8003 29.1237 12.8482 28.932C12.8962 28.7163 12.9441 28.5006 12.992 28.2849C13.0639 28.0452 13.1358 27.8056 13.2077 27.5659C13.2557 27.3262 13.3515 26.9308 13.4953 26.3796C13.6391 25.8283 13.7949 25.1932 13.9627 24.4742C14.1304 23.7552 14.2982 23.0482 14.466 22.3532C14.6577 21.6342 14.8135 21.0111 14.9333 20.4838C15.0532 20.0764 15.173 19.621 15.2928 19.1177C15.4127 18.6144 15.5325 18.0872 15.6523 17.5359C15.7961 16.9847 15.9399 16.4095 16.0837 15.8103C16.2515 15.2112 16.4073 14.612 16.5511 14.0129C16.6949 13.3897 16.9345 12.9344 17.2701 12.6468C17.6296 12.3352 18.001 12.1794 18.3845 12.1794C18.768 12.1794 19.1275 12.3352 19.463 12.6468C19.8225 12.9583 20.0741 13.4257 20.2179 14.0488C20.3617 14.6719 20.5055 15.2831 20.6493 15.8822C20.8171 16.4814 20.9609 17.0566 21.0807 17.6078C21.2245 18.1351 21.3444 18.6384 21.4402 19.1177C21.5601 19.597 21.6679 20.0284 21.7638 20.4119C21.9555 21.1788 22.1712 22.0656 22.4109 23.0722C22.6745 24.0548 22.9142 24.9775 23.1299 25.8403C23.3695 26.6791 23.5373 27.2783 23.6332 27.6378C23.6811 27.8775 23.741 28.1171 23.8129 28.3568C23.8848 28.5725 23.9447 28.8002 23.9927 29.0398C24.0646 29.2555 24.1245 29.4712 24.1724 29.6869C24.2203 29.8787 24.2683 30.0584 24.3162 30.2262C24.3641 30.37 24.4001 30.4898 24.4241 30.5857C24.448 30.6815 24.46 30.7654 24.46 30.8373C24.484 30.9092 24.496 30.9572 24.496 30.9811C24.5199 31.0051 24.5319 31.0051 24.5319 30.9811C24.5559 30.9572 24.5798 30.9212 24.6038 30.8733C24.6278 30.8014 24.6517 30.7055 24.6757 30.5857C24.7236 30.4658 24.7716 30.322 24.8195 30.1543C24.8674 29.9865 24.9154 29.8068 24.9633 29.615C25.0352 29.3993 25.1071 29.1836 25.179 28.9679C25.2509 28.7283 25.3228 28.5006 25.3947 28.2849C25.4666 28.0692 25.5385 27.8535 25.6104 27.6378C25.7063 27.3023 25.8501 26.8349 26.0418 26.2358C26.2335 25.6126 26.4492 24.9056 26.6889 24.1147C26.9286 23.2999 27.1802 22.461 27.4438 21.5982C27.7075 20.7115 27.9591 19.8487 28.1988 19.0099C28.4145 18.2669 28.6302 17.5359 28.8459 16.8169C29.0616 16.0979 29.2653 15.4269 29.457 14.8037C29.6727 14.1566 29.8525 13.5815 29.9963 13.0782C30.188 12.503 30.4756 12.1195 30.8591 11.9278C31.2665 11.7121 31.6739 11.6761 32.0813 11.8199C32.4888 11.9397 32.8003 12.1914 33.016 12.5749C33.2557 12.9583 33.2797 13.4377 33.0879 14.0129C32.9441 14.5161 32.7764 15.0913 32.5846 15.7384C32.3929 16.3616 32.1892 17.0206 31.9735 17.7157C31.7818 18.3867 31.5781 19.0578 31.3624 19.7289C31.0987 20.6396 30.8471 21.5024 30.6074 22.3172C30.3677 23.1081 30.1401 23.8631 29.9244 24.5821C29.7087 25.3011 29.493 26.0081 29.2773 26.7031C29.0616 27.3981 28.8459 28.0932 28.6302 28.7882C28.5103 29.1477 28.3905 29.5192 28.2707 29.9026C28.1748 30.2861 28.067 30.6815 27.9471 31.089C27.8273 31.4724 27.6955 31.8799 27.5517 32.3113C27.4079 32.7187 27.2641 33.1501 27.1203 33.6055C26.9765 34.0608 26.8087 34.5282 26.617 35.0075C26.4492 35.4868 26.1976 35.8703 25.862 36.1579C25.5505 36.4455 25.203 36.6372 24.8195 36.7331C24.436 36.829 24.0526 36.829 23.6691 36.7331C23.3096 36.6612 22.9861 36.4814 22.6985 36.1938C22.4348 35.9062 22.2431 35.5348 22.1233 35.0794C22.0274 34.6001 21.9196 34.1447 21.7997 33.7133C21.7039 33.2579 21.596 32.8265 21.4762 32.4191C21.3803 31.9877 21.2844 31.5683 21.1886 31.1609C21.0927 30.7534 20.9849 30.346 20.865 29.9386C20.7692 29.5312 20.6733 29.1237 20.5774 28.7163C20.4576 28.213 20.3138 27.6618 20.146 27.0626C19.9783 26.4395 19.7985 25.7684 19.6068 25.0494C19.439 24.3304 19.2473 23.5515 19.0316 22.7127C18.8159 21.8739 18.5882 20.9751 18.3485 20.0165C18.1808 19.3214 17.9651 18.7342 17.7015 18.2549C17.4378 17.7516 17.1862 17.2963 16.9465 16.8888C16.7308 16.4814 16.575 16.05 16.4792 15.5946C16.3833 15.1393 16.4073 14.612 16.5511 14.0129C16.6949 13.3897 16.9345 12.9344 17.2701 12.6468C17.6296 12.3352 18.001 12.1794 18.3845 12.1794C18.768 12.1794 19.1275 12.3352 19.463 12.6468C19.8225 12.9583 20.0741 13.4257 20.2179 14.0488C20.3617 14.6719 20.3857 15.2112 20.2898 15.6665C20.194 16.0979 20.0382 16.5054 19.8225 16.8888C19.6068 17.2723 19.3671 17.7037 19.1035 18.183C18.8399 18.6623 18.6242 19.2495 18.4564 19.9446C18.2167 20.9032 17.9891 21.802 17.7734 22.6408C17.5577 23.4796 17.3539 24.2585 17.1622 24.9775C16.9944 25.6965 16.8267 26.3676 16.6589 26.9907C16.5151 27.5899 16.3833 28.1411 16.2635 28.6444C16.1676 29.0518 16.0597 29.4473 15.9399 29.8307C15.844 30.2142 15.7362 30.5977 15.6164 30.9811C15.5205 31.3646 15.4127 31.76 15.2928 32.1675C15.173 32.5749 15.0532 33.0063 14.9333 33.4617C14.8135 33.917 14.6817 34.4083 14.5379 34.9356C14.3941 35.4629 14.1784 35.8823 13.8908 36.1938C13.6032 36.5054 13.2796 36.7091 12.9201 36.805C12.5846 36.9009 12.2371 36.9009 11.8776 36.805C11.5181 36.7091 11.1945 36.5174 10.907 36.2298C10.6194 35.9182 10.4037 35.5228 10.2599 35.0434C10.1161 34.5641 9.97226 34.1088 9.82846 33.6774C9.70863 33.246 9.57681 32.8385 9.43301 32.4551C9.31318 32.0476 9.19335 31.6522 9.07352 31.2687C8.95368 30.8853 8.83385 30.5018 8.71402 30.1183C8.59419 29.7109 8.47435 29.3035 8.35452 28.896C8.11486 28.0812 7.85122 27.2184 7.56363 26.3077C7.29999 25.3969 7.02438 24.4622 6.73678 23.5036C6.44918 22.521 6.16159 21.5383 5.87399 20.5557C5.65829 19.8367 5.41862 19.0698 5.15499 18.2549C4.89136 17.4401 4.63971 16.6611 4.40005 15.9182C4.18435 15.1513 3.99262 14.5161 3.82485 14.0129C3.65709 13.4377 3.68105 12.9583 3.89675 12.5749C4.11245 12.1914 4.42402 11.9397 4.83145 11.8199C5.23888 11.6761 5.64631 11.7121 6.05374 11.9278C6.46117 12.1195 6.74877 12.503 6.91653 13.0782ZM85.0682 22.461C84.6368 22.2693 84.2054 22.1015 83.774 21.9577C83.3426 21.8139 82.9112 21.7061 82.4798 21.6342C82.0724 21.5623 81.6649 21.5263 81.2575 21.5263C80.7063 21.5263 80.191 21.5982 79.7117 21.742C79.2323 21.8858 78.8369 22.1135 78.5253 22.4251C78.2377 22.7127 78.0939 23.0962 78.0939 23.5755C78.0939 23.887 78.2257 24.1746 78.4894 24.4383C78.753 24.6779 79.0885 24.8936 79.496 25.0854C79.9034 25.2771 80.3228 25.4569 80.7542 25.6246C81.1856 25.7684 81.5691 25.8882 81.9046 25.9841C83.055 26.3676 84.0975 26.799 85.0322 27.2783C85.9909 27.7337 86.7458 28.3208 87.2971 29.0398C87.8723 29.7588 88.1598 30.6815 88.1598 31.808C88.1598 32.8385 87.8842 33.7493 87.333 34.5402C86.7818 35.3071 86.0268 35.9062 85.0682 36.3376C84.1335 36.7451 83.043 36.9488 81.7967 36.9488C80.8381 36.9488 79.8315 36.805 78.777 36.5174C77.7224 36.2298 76.6799 35.8104 75.6493 35.2591C75.0981 34.9715 74.7626 34.6121 74.6427 34.1807C74.5469 33.7493 74.5948 33.3418 74.7865 32.9584C75.0022 32.5749 75.3138 32.3113 75.7212 32.1675C76.1526 32.0237 76.632 32.0956 77.1592 32.3832C77.6865 32.6708 78.2138 32.9104 78.741 33.1022C79.2683 33.2939 79.7836 33.4497 80.2869 33.5695C80.8141 33.6654 81.3174 33.7133 81.7967 33.7133C82.348 33.7133 82.8513 33.6534 83.3066 33.5336C83.786 33.3898 84.1694 33.186 84.457 32.9224C84.7686 32.6348 84.9244 32.2633 84.9244 31.808C84.9244 31.3047 84.6967 30.8853 84.2413 30.5497C83.786 30.1902 83.2347 29.9026 82.5876 29.6869C81.9645 29.4473 81.4013 29.2436 80.898 29.0758C79.7716 28.6923 78.753 28.2849 77.8423 27.8535C76.9315 27.3981 76.2006 26.8469 75.6493 26.1998C75.1221 25.5288 74.8584 24.654 74.8584 23.5755C74.8584 22.521 75.1341 21.5982 75.6853 20.8074C76.2365 20.0165 76.9915 19.4053 77.9501 18.9739C78.9088 18.5186 80.0112 18.2909 81.2575 18.2909C82.0724 18.2909 82.9232 18.3987 83.8099 18.6144C84.6967 18.8061 85.5954 19.1297 86.5062 19.5851C87.0334 19.8487 87.357 20.1962 87.4768 20.6276C87.6206 21.035 87.5966 21.4305 87.4049 21.8139C87.2371 22.1974 86.9376 22.473 86.5062 22.6408C86.0987 22.8086 85.6194 22.7486 85.0682 22.461ZM92.1472 35.1153C92.1472 34.6121 92.1472 34.0728 92.1472 33.4976C92.1472 32.9224 92.1472 32.3472 92.1472 31.772C92.1472 31.1968 92.1472 30.6576 92.1472 30.1543C92.1472 28.237 92.1472 26.1399 92.1472 23.8631C92.1472 21.5863 92.1472 19.0218 92.1472 16.1698C92.1472 15.5227 92.1472 14.7678 92.1472 13.905C92.1472 13.0422 92.1472 12.2633 92.1472 11.5683C92.1472 10.9691 92.303 10.5137 92.6145 10.2022C92.9501 9.89061 93.3335 9.73483 93.7649 9.73483C94.1963 9.73483 94.5678 9.89061 94.8794 10.2022C95.2149 10.5137 95.3827 10.9691 95.3827 11.5683C95.3827 12.1435 95.3827 12.6827 95.3827 13.186C95.3827 13.6653 95.3827 14.1566 95.3827 14.6599C95.3827 15.1393 95.3827 15.6426 95.3827 16.1698C95.3827 17.4401 95.3827 18.7942 95.3827 20.2322C95.3827 21.6701 95.3827 23.216 95.3827 24.8697C95.3827 26.4994 95.3827 28.2609 95.3827 30.1543C95.3827 30.7534 95.3827 31.3167 95.3827 31.8439C95.3827 32.3712 95.3827 32.8984 95.3827 33.4257C95.3827 33.953 95.3827 34.5162 95.3827 35.1153C95.3827 35.7145 95.2149 36.1699 94.8794 36.4814C94.5678 36.793 94.1963 36.9488 93.7649 36.9488C93.3335 36.9488 92.9501 36.793 92.6145 36.4814C92.303 36.1699 92.1472 35.7145 92.1472 35.1153ZM113.086 35.1153C113.086 34.6121 113.086 34.0848 113.086 33.5336C113.086 32.9584 113.086 32.3952 113.086 31.8439C113.086 31.2687 113.086 30.7415 113.086 30.2621C113.086 29.6869 113.086 29.0518 113.086 28.3568C113.086 27.6378 113.086 26.8589 113.086 26.0201C113.086 25.0135 112.918 24.1866 112.583 23.5395C112.271 22.8685 111.804 22.3652 111.181 22.0296C110.557 21.6941 109.791 21.5263 108.88 21.5263C108.089 21.5263 107.37 21.6582 106.723 21.9218C106.076 22.1615 105.513 22.521 105.033 23.0003C104.578 23.4796 104.218 24.0788 103.955 24.7978C103.691 25.5168 103.559 26.3436 103.559 27.2783C103.559 27.6857 103.559 28.225 103.559 28.896C103.559 29.5431 103.559 30.2382 103.559 30.9811C103.559 31.7241 103.559 32.4671 103.559 33.21C103.559 33.929 103.559 34.5641 103.559 35.1153C103.559 35.5947 103.451 35.9901 103.236 36.3017C103.02 36.5893 102.744 36.781 102.409 36.8769C102.097 36.9728 101.774 36.9728 101.438 36.8769C101.127 36.781 100.863 36.5893 100.647 36.3017C100.432 35.9901 100.324 35.5947 100.324 35.1153C100.324 34.66 100.324 34.0488 100.324 33.2819C100.324 32.491 100.324 31.6402 100.324 30.7295C100.324 29.7948 100.324 28.896 100.324 28.0332C100.324 27.1465 100.324 26.3796 100.324 25.7325C100.324 25.0854 100.324 24.642 100.324 24.4023C100.324 23.923 100.324 23.4437 100.324 22.9643C100.324 22.485 100.324 22.0057 100.324 21.5263C100.324 21.047 100.324 20.5677 100.324 20.0884C100.324 19.4892 100.48 19.0338 100.791 18.7223C101.127 18.4107 101.51 18.2549 101.942 18.2549C102.373 18.2549 102.744 18.4107 103.056 18.7223C103.391 19.0338 103.559 19.4892 103.559 20.0884C103.559 20.6156 103.559 21.1069 103.559 21.5623C103.559 22.0177 103.559 22.473 103.559 22.9284C103.559 23.3837 103.559 23.8751 103.559 24.4023C103.559 24.5461 103.559 24.9416 103.559 25.5887C103.559 26.2118 103.559 26.9787 103.559 27.8894C103.559 28.7762 103.559 29.6989 103.559 30.6576C103.559 31.5923 103.559 32.4671 103.559 33.2819C103.559 34.0728 103.559 34.684 103.559 35.1153C103.559 35.5947 103.451 35.9901 103.236 36.3017C103.02 36.5893 102.744 36.781 102.409 36.8769C102.097 36.9728 101.774 36.9728 101.438 36.8769C101.127 36.781 100.863 36.5893 100.647 36.3017C100.432 35.9901 100.324 35.5947 100.324 35.1153C100.324 34.5641 100.324 33.9889 100.324 33.3898C100.324 32.7666 100.324 32.1315 100.324 31.4844C100.324 30.8373 100.324 30.1902 100.324 29.5431C100.324 28.8721 100.324 28.237 100.324 27.6378C100.324 26.4155 100.539 25.2412 100.971 24.1147C101.426 22.9883 102.049 21.9937 102.84 21.1309C103.631 20.2441 104.566 19.5491 105.644 19.0458C106.723 18.5425 107.885 18.2909 109.131 18.2909C110.162 18.2909 111.109 18.4586 111.971 18.7942C112.858 19.1297 113.625 19.633 114.272 20.3041C114.919 20.9512 115.423 21.754 115.782 22.7127C116.142 23.6713 116.321 24.7738 116.321 26.0201C116.321 26.5713 116.321 27.2064 116.321 27.9254C116.321 28.6204 116.321 29.3993 116.321 30.2621C116.321 30.8613 116.321 31.4245 116.321 31.9518C116.321 32.4551 116.321 32.9584 116.321 33.4617C116.321 33.965 116.321 34.5162 116.321 35.1153C116.321 35.7145 116.154 36.1699 115.818 36.4814C115.507 36.793 115.135 36.9488 114.704 36.9488C114.272 36.9488 113.889 36.793 113.553 36.4814C113.242 36.1699 113.086 35.7145 113.086 35.1153Z" fill="white"/>
<defs>
<filter id="filter0_f_2050_7477" x="29.9991" y="21.6376" width="44.8173" height="20.9943" filterUnits="userSpaceOnUse" color-interpolation-filters="sRGB">
<feFlood flood-opacity="0" result="BackgroundImageFix"/>
<feBlend mode="normal" in="SourceGraphic" in2="BackgroundImageFix" result="shape"/>
<feGaussianBlur stdDeviation="0.23679" result="effect1_foregroundBlur_2050_7477"/>
</filter>
<filter id="filter1_d_2050_7477" x="49.9012" y="31.6478" width="4.46856" height="6.34703" filterUnits="userSpaceOnUse" color-interpolation-filters="sRGB">
<feFlood flood-opacity="0" result="BackgroundImageFix"/>
<feColorMatrix in="SourceAlpha" type="matrix" values="0 0 0 0 0 0 0 0 0 0 0 0 0 0 0 0 0 0 127 0" result="hardAlpha"/>
<feOffset/>
<feGaussianBlur stdDeviation="0.0271751"/>
<feComposite in2="hardAlpha" operator="out"/>
<feColorMatrix type="matrix" values="0 0 0 0 0 0 0 0 0 0 0 0 0 0 0 0 0 0 0.25 0"/>
<feBlend mode="normal" in2="BackgroundImageFix" result="effect1_dropShadow_2050_7477"/>
<feBlend mode="normal" in="SourceGraphic" in2="effect1_dropShadow_2050_7477" result="shape"/>
</filter>
<filter id="filter2_di_2050_7477" x="50.1604" y="32.2183" width="3.81871" height="5.30386" filterUnits="userSpaceOnUse" color-interpolation-filters="sRGB">
<feFlood flood-opacity="0" result="BackgroundImageFix"/>
<feColorMatrix in="SourceAlpha" type="matrix" values="0 0 0 0 0 0 0 0 0 0 0 0 0 0 0 0 0 0 127 0" result="hardAlpha"/>
<feOffset dy="0.02174"/>
<feGaussianBlur stdDeviation="0.016305"/>
<feColorMatrix type="matrix" values="0 0 0 0 1 0 0 0 0 1 0 0 0 0 1 0 0 0 0.41 0"/>
<feBlend mode="normal" in2="BackgroundImageFix" result="effect1_dropShadow_2050_7477"/>
<feBlend mode="normal" in="SourceGraphic" in2="effect1_dropShadow_2050_7477" result="shape"/>
<feColorMatrix in="SourceAlpha" type="matrix" values="0 0 0 0 0 0 0 0 0 0 0 0 0 0 0 0 0 0 127 0" result="hardAlpha"/>
<feOffset dx="-0.16305" dy="0.1087"/>
<feGaussianBlur stdDeviation="0.0815252"/>
<feComposite in2="hardAlpha" operator="arithmetic" k2="-1" k3="1"/>
<feColorMatrix type="matrix" values="0 0 0 0 0 0 0 0 0 0 0 0 0 0 0 0 0 0 0.25 0"/>
<feBlend mode="normal" in2="shape" result="effect2_innerShadow_2050_7477"/>
</filter>
<filter id="filter3_d_2050_7477" x="49.9448" y="31.6641" width="4.33573" height="6.31475" filterUnits="userSpaceOnUse" color-interpolation-filters="sRGB">
<feFlood flood-opacity="0" result="BackgroundImageFix"/>
<feColorMatrix in="SourceAlpha" type="matrix" values="0 0 0 0 0 0 0 0 0 0 0 0 0 0 0 0 0 0 127 0" result="hardAlpha"/>
<feOffset/>
<feGaussianBlur stdDeviation="0.0673913"/>
<feComposite in2="hardAlpha" operator="out"/>
<feColorMatrix type="matrix" values="0 0 0 0 0 0 0 0 0 0 0 0 0 0 0 0 0 0 0.25 0"/>
<feBlend mode="normal" in2="BackgroundImageFix" result="effect1_dropShadow_2050_7477"/>
<feBlend mode="normal" in="SourceGraphic" in2="effect1_dropShadow_2050_7477" result="shape"/>
</filter>
<filter id="filter4_di_2050_7477" x="50.4358" y="32.5708" width="3.23984" height="4.60151" filterUnits="userSpaceOnUse" color-interpolation-filters="sRGB">
<feFlood flood-opacity="0" result="BackgroundImageFix"/>
<feColorMatrix in="SourceAlpha" type="matrix" values="0 0 0 0 0 0 0 0 0 0 0 0 0 0 0 0 0 0 127 0" result="hardAlpha"/>
<feOffset dy="0.0459664"/>
<feGaussianBlur stdDeviation="0.028729"/>
<feColorMatrix type="matrix" values="0 0 0 0 1 0 0 0 0 1 0 0 0 0 1 0 0 0 0.59 0"/>
<feBlend mode="normal" in2="BackgroundImageFix" result="effect1_dropShadow_2050_7477"/>
<feBlend mode="normal" in="SourceGraphic" in2="effect1_dropShadow_2050_7477" result="shape"/>
<feColorMatrix in="SourceAlpha" type="matrix" values="0 0 0 0 0 0 0 0 0 0 0 0 0 0 0 0 0 0 127 0" result="hardAlpha"/>
<feOffset dx="-0.172374" dy="0.114916"/>
<feGaussianBlur stdDeviation="0.0861872"/>
<feComposite in2="hardAlpha" operator="arithmetic" k2="-1" k3="1"/>
<feColorMatrix type="matrix" values="0 0 0 0 0 0 0 0 0 0 0 0 0 0 0 0 0 0 0.25 0"/>
<feBlend mode="normal" in2="shape" result="effect2_innerShadow_2050_7477"/>
</filter>
<filter id="filter5_d_2050_7477" x="67.4727" y="22.9661" width="3.40666" height="5.42882" filterUnits="userSpaceOnUse" color-interpolation-filters="sRGB">
<feFlood flood-opacity="0" result="BackgroundImageFix"/>
<feColorMatrix in="SourceAlpha" type="matrix" values="0 0 0 0 0 0 0 0 0 0 0 0 0 0 0 0 0 0 127 0" result="hardAlpha"/>
<feOffset/>
<feGaussianBlur stdDeviation="0.0224415"/>
<feComposite in2="hardAlpha" operator="out"/>
<feColorMatrix type="matrix" values="0 0 0 0 0 0 0 0 0 0 0 0 0 0 0 0 0 0 0.25 0"/>
<feBlend mode="normal" in2="BackgroundImageFix" result="effect1_dropShadow_2050_7477"/>
<feBlend mode="normal" in="SourceGraphic" in2="effect1_dropShadow_2050_7477" result="shape"/>
</filter>
<filter id="filter6_di_2050_7477" x="67.6642" y="23.4531" width="2.91793" height="4.53562" filterUnits="userSpaceOnUse" color-interpolation-filters="sRGB">
<feFlood flood-opacity="0" result="BackgroundImageFix"/>
<feColorMatrix in="SourceAlpha" type="matrix" values="0 0 0 0 0 0 0 0 0 0 0 0 0 0 0 0 0 0 127 0" result="hardAlpha"/>
<feOffset dy="0.0179532"/>
<feGaussianBlur stdDeviation="0.0134649"/>
<feColorMatrix type="matrix" values="0 0 0 0 1 0 0 0 0 1 0 0 0 0 1 0 0 0 0.41 0"/>
<feBlend mode="normal" in2="BackgroundImageFix" result="effect1_dropShadow_2050_7477"/>
<feBlend mode="normal" in="SourceGraphic" in2="effect1_dropShadow_2050_7477" result="shape"/>
<feColorMatrix in="SourceAlpha" type="matrix" values="0 0 0 0 0 0 0 0 0 0 0 0 0 0 0 0 0 0 127 0" result="hardAlpha"/>
<feOffset dx="-0.134649" dy="0.089766"/>
<feGaussianBlur stdDeviation="0.0673245"/>
<feComposite in2="hardAlpha" operator="arithmetic" k2="-1" k3="1"/>
<feColorMatrix type="matrix" values="0 0 0 0 0 0 0 0 0 0 0 0 0 0 0 0 0 0 0.25 0"/>
<feBlend mode="normal" in2="shape" result="effect2_innerShadow_2050_7477"/>
</filter>
<filter id="filter7_d_2050_7477" x="67.5068" y="23.2603" width="3.50003" height="5.3554" filterUnits="userSpaceOnUse" color-interpolation-filters="sRGB">
<feFlood flood-opacity="0" result="BackgroundImageFix"/>
<feColorMatrix in="SourceAlpha" type="matrix" values="0 0 0 0 0 0 0 0 0 0 0 0 0 0 0 0 0 0 127 0" result="hardAlpha"/>
<feOffset/>
<feGaussianBlur stdDeviation="0.0673913"/>
<feComposite in2="hardAlpha" operator="out"/>
<feColorMatrix type="matrix" values="0 0 0 0 0 0 0 0 0 0 0 0 0 0 0 0 0 0 0.25 0"/>
<feBlend mode="normal" in2="BackgroundImageFix" result="effect1_dropShadow_2050_7477"/>
<feBlend mode="normal" in="SourceGraphic" in2="effect1_dropShadow_2050_7477" result="shape"/>
</filter>
<filter id="filter8_d_2050_7477" x="67.6012" y="23.3547" width="3.31126" height="5.16662" filterUnits="userSpaceOnUse" color-interpolation-filters="sRGB">
<feFlood flood-opacity="0" result="BackgroundImageFix"/>
<feColorMatrix in="SourceAlpha" type="matrix" values="0 0 0 0 0 0 0 0 0 0 0 0 0 0 0 0 0 0 127 0" result="hardAlpha"/>
<feOffset/>
<feGaussianBlur stdDeviation="0.0201971"/>
<feComposite in2="hardAlpha" operator="out"/>
<feColorMatrix type="matrix" values="0 0 0 0 0 0 0 0 0 0 0 0 0 0 0 0 0 0 0.25 0"/>
<feBlend mode="normal" in2="BackgroundImageFix" result="effect1_dropShadow_2050_7477"/>
<feBlend mode="normal" in="SourceGraphic" in2="effect1_dropShadow_2050_7477" result="shape"/>
</filter>
<filter id="filter9_di_2050_7477" x="67.9521" y="24.0272" width="2.57529" height="3.9212" filterUnits="userSpaceOnUse" color-interpolation-filters="sRGB">
<feFlood flood-opacity="0" result="BackgroundImageFix"/>
<feColorMatrix in="SourceAlpha" type="matrix" values="0 0 0 0 0 0 0 0 0 0 0 0 0 0 0 0 0 0 127 0" result="hardAlpha"/>
<feOffset dy="0.0459664"/>
<feGaussianBlur stdDeviation="0.028729"/>
<feColorMatrix type="matrix" values="0 0 0 0 1 0 0 0 0 1 0 0 0 0 1 0 0 0 0.59 0"/>
<feBlend mode="normal" in2="BackgroundImageFix" result="effect1_dropShadow_2050_7477"/>
<feBlend mode="normal" in="SourceGraphic" in2="effect1_dropShadow_2050_7477" result="shape"/>
<feColorMatrix in="SourceAlpha" type="matrix" values="0 0 0 0 0 0 0 0 0 0 0 0 0 0 0 0 0 0 127 0" result="hardAlpha"/>
<feOffset dx="-0.172374" dy="0.114916"/>
<feGaussianBlur stdDeviation="0.0861872"/>
<feComposite in2="hardAlpha" operator="arithmetic" k2="-1" k3="1"/>
<feColorMatrix type="matrix" values="0 0 0 0 0 0 0 0 0 0 0 0 0 0 0 0 0 0 0.25 0"/>
<feBlend mode="normal" in2="shape" result="effect2_innerShadow_2050_7477"/>
</filter>
<filter id="filter10_ii_2050_7477" x="30.8464" y="12.2585" width="42.7894" height="27.9497" filterUnits="userSpaceOnUse" color-interpolation-filters="sRGB">
<feFlood flood-opacity="0" result="BackgroundImageFix"/>
<feBlend mode="normal" in="SourceGraphic" in2="BackgroundImageFix" result="shape"/>
<feColorMatrix in="SourceAlpha" type="matrix" values="0 0 0 0 0 0 0 0 0 0 0 0 0 0 0 0 0 0 127 0" result="hardAlpha"/>
<feOffset dx="0.808693" dy="-1.07826"/>
<feGaussianBlur stdDeviation="3.23478"/>
<feComposite in2="hardAlpha" operator="arithmetic" k2="-1" k3="1"/>
<feColorMatrix type="matrix" values="0 0 0 0 0 0 0 0 0 0 0 0 0 0 0 0 0 0 0.07 0"/>
<feBlend mode="normal" in2="shape" result="effect1_innerShadow_2050_7477"/>
<feColorMatrix in="SourceAlpha" type="matrix" values="0 0 0 0 0 0 0 0 0 0 0 0 0 0 0 0 0 0 127 0" result="hardAlpha"/>
<feOffset dy="-0.134783"/>
<feGaussianBlur stdDeviation="0.269565"/>
<feComposite in2="hardAlpha" operator="arithmetic" k2="-1" k3="1"/>
<feColorMatrix type="matrix" values="0 0 0 0 0 0 0 0 0 0 0 0 0 0 0 0 0 0 0.09 0"/>
<feBlend mode="normal" in2="effect1_innerShadow_2050_7477" result="effect2_innerShadow_2050_7477"/>
</filter>
<filter id="filter11_ddi_2050_7477" x="41.0013" y="17.23" width="15.7541" height="9.29341" filterUnits="userSpaceOnUse" color-interpolation-filters="sRGB">
<feFlood flood-opacity="0" result="BackgroundImageFix"/>
<feColorMatrix in="SourceAlpha" type="matrix" values="0 0 0 0 0 0 0 0 0 0 0 0 0 0 0 0 0 0 127 0" result="hardAlpha"/>
<feOffset dx="-0.1087" dy="0.0543503"/>
<feGaussianBlur stdDeviation="0.0543503"/>
<feColorMatrix type="matrix" values="0 0 0 0 1 0 0 0 0 1 0 0 0 0 1 0 0 0 0.28 0"/>
<feBlend mode="normal" in2="BackgroundImageFix" result="effect1_dropShadow_2050_7477"/>
<feColorMatrix in="SourceAlpha" type="matrix" values="0 0 0 0 0 0 0 0 0 0 0 0 0 0 0 0 0 0 127 0" result="hardAlpha"/>
<feOffset dy="-0.0543503"/>
<feGaussianBlur stdDeviation="0.0543503"/>
<feColorMatrix type="matrix" values="0 0 0 0 1 0 0 0 0 1 0 0 0 0 1 0 0 0 0.56 0"/>
<feBlend mode="normal" in2="effect1_dropShadow_2050_7477" result="effect2_dropShadow_2050_7477"/>
<feBlend mode="normal" in="SourceGraphic" in2="effect2_dropShadow_2050_7477" result="shape"/>
<feColorMatrix in="SourceAlpha" type="matrix" values="0 0 0 0 0 0 0 0 0 0 0 0 0 0 0 0 0 0 127 0" result="hardAlpha"/>
<feOffset dx="-0.0543503" dy="0.16305"/>
<feGaussianBlur stdDeviation="0.0815252"/>
<feComposite in2="hardAlpha" operator="arithmetic" k2="-1" k3="1"/>
<feColorMatrix type="matrix" values="0 0 0 0 0 0 0 0 0 0 0 0 0 0 0 0 0 0 0.75 0"/>
<feBlend mode="normal" in2="shape" result="effect3_innerShadow_2050_7477"/>
</filter>
<filter id="filter12_di_2050_7477" x="54.0028" y="17.256" width="14.915" height="8.97953" filterUnits="userSpaceOnUse" color-interpolation-filters="sRGB">
<feFlood flood-opacity="0" result="BackgroundImageFix"/>
<feColorMatrix in="SourceAlpha" type="matrix" values="0 0 0 0 0 0 0 0 0 0 0 0 0 0 0 0 0 0 127 0" result="hardAlpha"/>
<feOffset dy="0.0562053"/>
<feGaussianBlur stdDeviation="0.0281026"/>
<feColorMatrix type="matrix" values="0 0 0 0 0.925374 0 0 0 0 0.925374 0 0 0 0 0.925374 0 0 0 0.37 0"/>
<feBlend mode="normal" in2="BackgroundImageFix" result="effect1_dropShadow_2050_7477"/>
<feBlend mode="normal" in="SourceGraphic" in2="effect1_dropShadow_2050_7477" result="shape"/>
<feColorMatrix in="SourceAlpha" type="matrix" values="0 0 0 0 0 0 0 0 0 0 0 0 0 0 0 0 0 0 127 0" result="hardAlpha"/>
<feOffset dx="-0.2174" dy="0.271751"/>
<feGaussianBlur stdDeviation="0.1087"/>
<feComposite in2="hardAlpha" operator="arithmetic" k2="-1" k3="1"/>
<feColorMatrix type="matrix" values="0 0 0 0 0 0 0 0 0 0 0 0 0 0 0 0 0 0 0.8 0"/>
<feBlend mode="normal" in2="shape" result="effect2_innerShadow_2050_7477"/>
</filter>
<filter id="filter13_di_2050_7477" x="58.3549" y="13.5862" width="10.5043" height="3.56723" filterUnits="userSpaceOnUse" color-interpolation-filters="sRGB">
<feFlood flood-opacity="0" result="BackgroundImageFix"/>
<feColorMatrix in="SourceAlpha" type="matrix" values="0 0 0 0 0 0 0 0 0 0 0 0 0 0 0 0 0 0 127 0" result="hardAlpha"/>
<feOffset dy="0.0562053"/>
<feGaussianBlur stdDeviation="0.0281026"/>
<feColorMatrix type="matrix" values="0 0 0 0 0.925374 0 0 0 0 0.925374 0 0 0 0 0.925374 0 0 0 0.37 0"/>
<feBlend mode="normal" in2="BackgroundImageFix" result="effect1_dropShadow_2050_7477"/>
<feBlend mode="normal" in="SourceGraphic" in2="effect1_dropShadow_2050_7477" result="shape"/>
<feColorMatrix in="SourceAlpha" type="matrix" values="0 0 0 0 0 0 0 0 0 0 0 0 0 0 0 0 0 0 127 0" result="hardAlpha"/>
<feOffset dx="-0.2174" dy="0.271751"/>
<feGaussianBlur stdDeviation="0.1087"/>
<feComposite in2="hardAlpha" operator="arithmetic" k2="-1" k3="1"/>
<feColorMatrix type="matrix" values="0 0 0 0 0 0 0 0 0 0 0 0 0 0 0 0 0 0 0.8 0"/>
<feBlend mode="normal" in2="shape" result="effect2_innerShadow_2050_7477"/>
</filter>
<filter id="filter14_f_2050_7477" x="37.243" y="24.8735" width="18.7152" height="8.30703" filterUnits="userSpaceOnUse" color-interpolation-filters="sRGB">
<feFlood flood-opacity="0" result="BackgroundImageFix"/>
<feBlend mode="normal" in="SourceGraphic" in2="BackgroundImageFix" result="shape"/>
<feGaussianBlur stdDeviation="0.38045" result="effect1_foregroundBlur_2050_7477"/>
</filter>
<filter id="filter15_f_2050_7477" x="32.3587" y="19.8656" width="8.28152" height="9.71264" filterUnits="userSpaceOnUse" color-interpolation-filters="sRGB">
<feFlood flood-opacity="0" result="BackgroundImageFix"/>
<feBlend mode="normal" in="SourceGraphic" in2="BackgroundImageFix" result="shape"/>
<feGaussianBlur stdDeviation="0.244575" result="effect1_foregroundBlur_2050_7477"/>
</filter>
<filter id="filter16_di_2050_7477" x="59.5861" y="25.3978" width="1.34713" height="1.13767" filterUnits="userSpaceOnUse" color-interpolation-filters="sRGB">
<feFlood flood-opacity="0" result="BackgroundImageFix"/>
<feColorMatrix in="SourceAlpha" type="matrix" values="0 0 0 0 0 0 0 0 0 0 0 0 0 0 0 0 0 0 127 0" result="hardAlpha"/>
<feOffset dy="-0.0269565"/>
<feGaussianBlur stdDeviation="0.0134783"/>
<feColorMatrix type="matrix" values="0 0 0 0 0.78755 0 0 0 0 0.78755 0 0 0 0 0.78755 0 0 0 0.19 0"/>
<feBlend mode="normal" in2="BackgroundImageFix" result="effect1_dropShadow_2050_7477"/>
<feBlend mode="normal" in="SourceGraphic" in2="effect1_dropShadow_2050_7477" result="shape"/>
<feColorMatrix in="SourceAlpha" type="matrix" values="0 0 0 0 0 0 0 0 0 0 0 0 0 0 0 0 0 0 127 0" result="hardAlpha"/>
<feOffset dy="0.134783"/>
<feGaussianBlur stdDeviation="0.0673913"/>
<feComposite in2="hardAlpha" operator="arithmetic" k2="-1" k3="1"/>
<feColorMatrix type="matrix" values="0 0 0 0 0 0 0 0 0 0 0 0 0 0 0 0 0 0 0.74 0"/>
<feBlend mode="normal" in2="shape" result="effect2_innerShadow_2050_7477"/>
</filter>
<filter id="filter17_di_2050_7477" x="65.559" y="22.5777" width="1.34713" height="1.13764" filterUnits="userSpaceOnUse" color-interpolation-filters="sRGB">
<feFlood flood-opacity="0" result="BackgroundImageFix"/>
<feColorMatrix in="SourceAlpha" type="matrix" values="0 0 0 0 0 0 0 0 0 0 0 0 0 0 0 0 0 0 127 0" result="hardAlpha"/>
<feOffset dy="-0.0269565"/>
<feGaussianBlur stdDeviation="0.0134783"/>
<feColorMatrix type="matrix" values="0 0 0 0 0.78755 0 0 0 0 0.78755 0 0 0 0 0.78755 0 0 0 0.19 0"/>
<feBlend mode="normal" in2="BackgroundImageFix" result="effect1_dropShadow_2050_7477"/>
<feBlend mode="normal" in="SourceGraphic" in2="effect1_dropShadow_2050_7477" result="shape"/>
<feColorMatrix in="SourceAlpha" type="matrix" values="0 0 0 0 0 0 0 0 0 0 0 0 0 0 0 0 0 0 127 0" result="hardAlpha"/>
<feOffset dy="0.134783"/>
<feGaussianBlur stdDeviation="0.0673913"/>
<feComposite in2="hardAlpha" operator="arithmetic" k2="-1" k3="1"/>
<feColorMatrix type="matrix" values="0 0 0 0 0 0 0 0 0 0 0 0 0 0 0 0 0 0 0.74 0"/>
<feBlend mode="normal" in2="shape" result="effect2_innerShadow_2050_7477"/>
</filter>
<filter id="filter18_f_2050_7477" x="55.253" y="25.1116" width="11.9274" height="8.84835" filterUnits="userSpaceOnUse" color-interpolation-filters="sRGB">
<feFlood flood-opacity="0" result="BackgroundImageFix"/>
<feBlend mode="normal" in="SourceGraphic" in2="BackgroundImageFix" result="shape"/>
<feGaussianBlur stdDeviation="0.0815252" result="effect1_foregroundBlur_2050_7477"/>
</filter>
<filter id="filter19_f_2050_7477" x="31.2505" y="27.3788" width="12.5047" height="8.02869" filterUnits="userSpaceOnUse" color-interpolation-filters="sRGB">
<feFlood flood-opacity="0" result="BackgroundImageFix"/>
<feBlend mode="normal" in="SourceGraphic" in2="BackgroundImageFix" result="shape"/>
<feGaussianBlur stdDeviation="0.135875" result="effect1_foregroundBlur_2050_7477"/>
</filter>
<filter id="filter20_ddii_2050_7477" x="30.9165" y="28.2052" width="15.5699" height="8.07454" filterUnits="userSpaceOnUse" color-interpolation-filters="sRGB">
<feFlood flood-opacity="0" result="BackgroundImageFix"/>
<feColorMatrix in="SourceAlpha" type="matrix" values="0 0 0 0 0 0 0 0 0 0 0 0 0 0 0 0 0 0 127 0" result="hardAlpha"/>
<feOffset dy="0.050735"/>
<feGaussianBlur stdDeviation="0.0338232"/>
<feColorMatrix type="matrix" values="0 0 0 0 0 0 0 0 0 0 0 0 0 0 0 0 0 0 0.57 0"/>
<feBlend mode="normal" in2="BackgroundImageFix" result="effect1_dropShadow_2050_7477"/>
<feColorMatrix in="SourceAlpha" type="matrix" values="0 0 0 0 0 0 0 0 0 0 0 0 0 0 0 0 0 0 127 0" result="hardAlpha"/>
<feOffset dy="-0.0338232"/>
<feGaussianBlur stdDeviation="0.0338232"/>
<feColorMatrix type="matrix" values="0 0 0 0 0 0 0 0 0 0 0 0 0 0 0 0 0 0 1 0"/>
<feBlend mode="normal" in2="effect1_dropShadow_2050_7477" result="effect2_dropShadow_2050_7477"/>
<feBlend mode="normal" in="SourceGraphic" in2="effect2_dropShadow_2050_7477" result="shape"/>
<feColorMatrix in="SourceAlpha" type="matrix" values="0 0 0 0 0 0 0 0 0 0 0 0 0 0 0 0 0 0 127 0" result="hardAlpha"/>
<feOffset dy="0.466293"/>
<feGaussianBlur stdDeviation="0.475204"/>
<feComposite in2="hardAlpha" operator="arithmetic" k2="-1" k3="1"/>
<feColorMatrix type="matrix" values="0 0 0 0 0 0 0 0 0 0 0 0 0 0 0 0 0 0 1 0"/>
<feBlend mode="normal" in2="shape" result="effect3_innerShadow_2050_7477"/>
<feColorMatrix in="SourceAlpha" type="matrix" values="0 0 0 0 0 0 0 0 0 0 0 0 0 0 0 0 0 0 127 0" result="hardAlpha"/>
<feOffset dy="-0.0508122"/>
<feGaussianBlur stdDeviation="0.0508122"/>
<feComposite in2="hardAlpha" operator="arithmetic" k2="-1" k3="1"/>
<feColorMatrix type="matrix" values="0 0 0 0 0 0 0 0 0 0 0 0 0 0 0 0 0 0 1 0"/>
<feBlend mode="normal" in2="effect3_innerShadow_2050_7477" result="effect4_innerShadow_2050_7477"/>
</filter>
<filter id="filter21_d_2050_7477" x="39.7057" y="32.7976" width="4.70718" height="1.89709" filterUnits="userSpaceOnUse" color-interpolation-filters="sRGB">
<feFlood flood-opacity="0" result="BackgroundImageFix"/>
<feColorMatrix in="SourceAlpha" type="matrix" values="0 0 0 0 0 0 0 0 0 0 0 0 0 0 0 0 0 0 127 0" result="hardAlpha"/>
<feOffset dx="0.0539127" dy="0.0669698"/>
<feGaussianBlur stdDeviation="0.033485"/>
<feColorMatrix type="matrix" values="0 0 0 0 1 0 0 0 0 1 0 0 0 0 1 0 0 0 0.24 0"/>
<feBlend mode="normal" in2="BackgroundImageFix" result="effect1_dropShadow_2050_7477"/>
<feBlend mode="normal" in="SourceGraphic" in2="effect1_dropShadow_2050_7477" result="shape"/>
</filter>
<filter id="filter22_d_2050_7477" x="31.3021" y="28.5651" width="1.45645" height="1.78547" filterUnits="userSpaceOnUse" color-interpolation-filters="sRGB">
<feFlood flood-opacity="0" result="BackgroundImageFix"/>
<feColorMatrix in="SourceAlpha" type="matrix" values="0 0 0 0 0 0 0 0 0 0 0 0 0 0 0 0 0 0 127 0" result="hardAlpha"/>
<feOffset dx="0.0539127" dy="0.0669698"/>
<feGaussianBlur stdDeviation="0.033485"/>
<feColorMatrix type="matrix" values="0 0 0 0 1 0 0 0 0 1 0 0 0 0 1 0 0 0 0.24 0"/>
<feBlend mode="normal" in2="BackgroundImageFix" result="effect1_dropShadow_2050_7477"/>
<feBlend mode="normal" in="SourceGraphic" in2="effect1_dropShadow_2050_7477" result="shape"/>
</filter>
<linearGradient id="paint0_linear_2050_7477" x1="54.4106" y1="41.198" x2="55.9225" y2="38.1753" gradientUnits="userSpaceOnUse">
<stop stop-color="#3F3F3F"/>
<stop offset="1" stop-color="#5C5C5C"/>
</linearGradient>
<linearGradient id="paint1_linear_2050_7477" x1="54.2402" y1="40.9905" x2="55.731" y2="38.102" gradientUnits="userSpaceOnUse">
<stop stop-color="#AAAAAA"/>
<stop offset="1" stop-color="#C2C2C2"/>
</linearGradient>
<linearGradient id="paint2_linear_2050_7477" x1="71.9708" y1="30.5218" x2="72.7492" y2="27.8409" gradientUnits="userSpaceOnUse">
<stop stop-color="#3F3F3F"/>
<stop offset="1" stop-color="#5C5C5C"/>
</linearGradient>
<linearGradient id="paint3_linear_2050_7477" x1="71.536" y1="30.7104" x2="72.4352" y2="28.1671" gradientUnits="userSpaceOnUse">
<stop stop-color="#AAAAAA"/>
<stop offset="1" stop-color="#C2C2C2"/>
</linearGradient>
<linearGradient id="paint4_linear_2050_7477" x1="49.4805" y1="38.78" x2="29.56" y2="15.7248" gradientUnits="userSpaceOnUse">
<stop stop-color="#D8D8D8"/>
<stop offset="1" stop-color="white"/>
</linearGradient>
<linearGradient id="paint5_linear_2050_7477" x1="46.9223" y1="9.40715" x2="58.1958" y2="19.543" gradientUnits="userSpaceOnUse">
<stop stop-color="#E8EAE9"/>
<stop offset="0.498386" stop-color="#707072"/>
<stop offset="1" stop-color="#2F3032"/>
</linearGradient>
<linearGradient id="paint6_linear_2050_7477" x1="65.8819" y1="43.8413" x2="54.8761" y2="24.8873" gradientUnits="userSpaceOnUse">
<stop stop-color="#E8EAE9"/>
<stop offset="0.498386" stop-color="#707072"/>
<stop offset="1" stop-color="#2F3032"/>
</linearGradient>
<linearGradient id="paint7_linear_2050_7477" x1="69.8635" y1="23.8623" x2="63.781" y2="15.4289" gradientUnits="userSpaceOnUse">
<stop stop-color="#E8EAE9"/>
<stop offset="0.498386" stop-color="#707072"/>
<stop offset="1" stop-color="#2F3032"/>
</linearGradient>
<linearGradient id="paint8_linear_2050_7477" x1="47.2758" y1="32.6688" x2="45.808" y2="28.7095" gradientUnits="userSpaceOnUse">
<stop stop-color="#ECEAEA"/>
<stop offset="1" stop-color="white" stop-opacity="0"/>
</linearGradient>
<linearGradient id="paint9_linear_2050_7477" x1="31.5704" y1="25.9473" x2="36.7714" y2="27.6154" gradientUnits="userSpaceOnUse">
<stop stop-color="#ECEAEA"/>
<stop offset="1" stop-color="white" stop-opacity="0"/>
</linearGradient>
<linearGradient id="paint10_linear_2050_7477" x1="59.5528" y1="33.0422" x2="57.9179" y2="29.7819" gradientUnits="userSpaceOnUse">
<stop stop-color="#040404"/>
<stop offset="1" stop-color="#3C3C3C" stop-opacity="0"/>
</linearGradient>
<linearGradient id="paint11_linear_2050_7477" x1="37.4269" y1="33.4065" x2="38.3027" y2="31.5917" gradientUnits="userSpaceOnUse">
<stop stop-color="#4B4B4B"/>
<stop offset="0.899322" stop-opacity="0"/>
</linearGradient>
</defs>
</svg>
